<svg xmlns="http://www.w3.org/2000/svg" xmlns:xlink="http://www.w3.org/1999/xlink" xmlns:inkscape="http://www.inkscape.org/namespaces/inkscape" version="1.1" width="492.7" height="66.8" viewBox="0 0 492.7 66.8">
<defs>
<path id="font_1_60" d="M.34199525 .12408447V.18099976H.31399537V.1270752C.31399537 .05319214 .2829895 .01725769 .24699402 .01725769 .17999268 .01725769 .17999268 .1051178 .17999268 .12309265V.3996582H.32499696V.43066407H.17999268V.6142578H.1519928C.15098572 .5304413 .115997318 .42765809 .018997193 .4246521V.3996582H.10598755V.12408447C.10598755 .012252808 .18699646-.0107421879 .23999024-.0107421879 .30699159-.011001587 .34199525 .052993776 .34199525 .12399292V.12408447Z"/>
<path id="font_1_48" d="M.5469971 0V.0309906C.49598695 .03125 .47099305 .03125 .46998597 .0622406V.25431825C.46998597 .3373413 .46998597 .36636354 .44198609 .4013672 .4189911 .42938233 .3809967 .4423828 .33099366 .4423828 .2639923 .4423828 .21499634 .40737916 .18399048 .35134889H.18299866V.69433596L.034988405 .6826172V.6516113C.102996829 .6516113 .11199951 .64463809 .11199951 .59580996V.077041629C.11199951 .0309906 .100997928 .0309906 .034988405 .0309906V0C.08198547 .0019989014 .100997928 .0029907227 .14898682 .0029907227 .19699097 .0029907227 .20999146 .0019989014 .2630005 0V.0309906C.19699097 .0309906 .18598938 .0309906 .18598938 .077041629V.2592163C.18598938 .36532594 .26098634 .41737367 .32398988 .41737367 .3829956 .41737367 .3959961 .3683319 .3959961 .30825807V.077041629C.3959961 .0309906 .3849945 .0309906 .31900025 .0309906V0C.3659973 .0019989014 .3849945 .0029907227 .43299867 .0029907227 .48098756 .0029907227 .49398805 .0019989014 .5469971 0Z"/>
<path id="font_1_45" d="M.4269867 .11936951C.4269867 .12637329 .42199708 .13237 .41299439 .13237 .40299989 .13237 .3999939 .12536621 .39898683 .12136841 .36499024 .019256592 .27598573 .01725769 .26098634 .01725769 .21299744 .01725769 .17199707 .044281007 .14898682 .078323367 .115997318 .12736511 .114990238 .18743897 .114990238 .22949219H.3999939C.42199708 .22949219 .4269867 .22949219 .4269867 .25048829 .4269867 .35333253 .37098695 .4482422 .24299622 .4482422 .12298584 .4482422 .0289917 .3443451 .0289917 .22047425 .0289917 .08932495 .13398743-.0107421879 .2559967-.0107421879 .37799073-.0107421879 .4269867 .096343997 .4269867 .11936951M.35899354 .253479H.115997318C.125 .40725709 .21499634 .42323304 .24299622 .42323304 .2979889 .42323304 .35798646 .38130189 .35899354 .253479Z"/>
<path id="font_1_59" d="M.36999513 .12831116C.36999513 .17330933 .34999085 .20030213 .32798768 .22329712 .2939911 .25628663 .2579956 .26327516 .18399048 .2772827 .1579895 .28227235 .084991458 .29527284 .084991458 .35224916 .084991458 .38424684 .10798645 .426239 .19898987 .426239 .30699159 .426239 .31399537 .34326173 .31599427 .31826783 .31698609 .3062744 .31698609 .3002777 .32998658 .3002777 .34399415 .3002777 .34399415 .30726625 .34399415 .32626344V.4222412C.34399415 .4392395 .34399415 .4482422 .33198548 .4482422 .32699586 .4482422 .32499696 .4482422 .31199647 .43623353 .30999757 .43423463 .30099488 .42523194 .29499818 .4202423 .2639923 .44223023 .23298645 .4482422 .19898987 .4482422 .066986087 .4482422 .033996583 .37524415 .033996583 .32426454 .033996583 .29226686 .04798889 .26628114 .070999149 .24429322 .10499573 .21330261 .14299011 .20629883 .19400025 .19729615 .24499512 .18730164 .2619934 .18431092 .28399659 .16731262 .2939911 .15931702 .31900025 .14031983 .31900025 .10229492 .31900025 .014251709 .21798706 .014251709 .20399475 .014251709 .101989749 .014251709 .07598877 .0993042 .06399536 .15332031 .06098938 .16331482 .05999756 .16931153 .04798889 .16931153 .033996583 .16931153 .033996583 .16131592 .033996583 .14331055V.01524353C.033996583-.0017547608 .033996583-.0107421879 .04598999-.0107421879 .051986696-.0107421879 .052993776-.009750366 .070999149 .009246826 .07499695 .01524353 .085998538 .028259278 .09098816 .03326416 .1329956-.007751465 .1789856-.0107421879 .20399475-.0107421879 .32699586-.0107421879 .36999513 .061279298 .36999513 .12831116Z"/>
<path id="font_1_43" d="M.4269867 .11936951C.4269867 .13139344 .41600038 .13139344 .41299439 .13139344 .4019928 .13139344 .4019928 .12937927 .3959961 .11236572 .37298585 .043289186 .31698609 .01725769 .2659912 .01725769 .20199585 .01725769 .11999512 .06932068 .11999512 .21749878 .11999512 .3735962 .19999695 .42022706 .2599945 .42022706 .272995 .42022706 .32699586 .41825868 .3639984 .39356996 .34298707 .3895874 .32299806 .3755951 .32299806 .34658814 .32299806 .32058717 .34298707 .30059815 .36898805 .30059815 .394989 .30059815 .41600038 .31759645 .41600038 .34858705 .41600038 .4103546 .34599305 .4482422 .2579956 .4482422 .12998963 .4482422 .033996583 .3415985 .033996583 .2164917 .033996583 .08734131 .13798523-.0107421879 .2559967-.0107421879 .394989-.0107421879 .4269867 .11036682 .4269867 .11936951Z"/>
<path id="font_1_58" d="M.37298585 .3798828C.37298585 .41236878 .34298707 .4423828 .2979889 .4423828 .23799134 .4423828 .19599915 .40037538 .17298889 .33787538H.17199707V.4423828L.02999878 .43066407V.3996582C.09799194 .3996582 .10699463 .3927307 .10699463 .34387208V.07698059C.10699463 .0309906 .09599304 .0309906 .02999878 .0309906V0C.08299255 .0019989014 .09599304 .0029907227 .14698792 .0029907227L.27398683 0V.0309906H.2539978C.18099976 .0309906 .17799378 .041992189 .17799378 .07897949V.22891236C.17799378 .26989747 .18899536 .4166565 .30299378 .4166565V.4156494C.30099488 .4146576 .2849884 .40264894 .2849884 .37887574 .2849884 .35186769 .30599977 .33486939 .32899476 .33486939 .34999085 .33486939 .37298585 .34986878 .37298585 .3798828Z"/>
<path id="font_1_41" d="M.49699403 .089141849V.14515686H.46899415V.090148929C.46899415 .07914734 .46899415 .029129029 .43299867 .029129029 .39698792 .029129029 .39698792 .07714844 .39698792 .09315491V.26818849C.39698792 .32521058 .39698792 .3592224 .35198976 .40022279 .31498719 .43322755 .2669983 .4482422 .21699524 .4482422 .1329956 .4482422 .06298828 .40623475 .06298828 .34220887 .06298828 .311203 .083999637 .2942047 .10998535 .2942047 .13699341 .2942047 .1559906 .31420899 .1559906 .34020997 .1559906 .3832245 .11099243 .38822938 .11099243 .38822938 .13798523 .41423036 .18598938 .42323304 .21499634 .42323304 .2659912 .42323304 .32299806 .3852234 .32299806 .29719544V.26419068C.2689972 .26219178 .19400025 .2571869 .1269989 .22518921 .054992677 .19017029 .032989503 .13816834 .032989503 .09814453 .032989503 .01625061 .12998963-.0107421879 .19699097-.0107421879 .27999879-.0107421879 .31799317 .04425049 .33198548 .072250369 .33699037 .030136109 .3659973-.005859375 .40899659-.005859375 .43399049-.005859375 .49699403 .009140015 .49699403 .08912659V.089141849M.32299806 .14112854C.32299806 .04425049 .24798584 .014251709 .20399475 .014251709 .15699768 .014251709 .11299133 .04824829 .11299133 .098236087 .11299133 .16423035 .16999817 .23422241 .32299806 .24023438V.14112854Z"/>
<path id="font_1_56" d="M.5359955 .21557617C.5359955 .34158326 .43798829 .4423828 .31999208 .4423828 .2659912 .4423828 .21598816 .42037965 .17799378 .37858583V.4423828L.02999878 .43066407V.3996582C.100997928 .3996582 .10699463 .39363099 .10699463 .35058595V-.116989139C.10699463-.16308594 .09599304-.16308594 .02999878-.16308594V-.1940918C.07699585-.1920929 .09599304-.19110108 .14399719-.19110108 .19198609-.19110108 .20498657-.1920929 .2579956-.1940918V-.16308594C.19198609-.16308594 .18099976-.16308594 .18099976-.116989139V.048187257C.20698548 .022232056 .24099732-.0107421879 .30699159-.0107421879 .42599488-.0107421879 .5359955 .085113529 .5359955 .21585083V.21557617M.44999696 .21585083C.44999696 .1020813 .38198854 .014251709 .30099488 .014251709 .2559967 .014251709 .21798706 .04019165 .19400025 .07513428 .18099976 .09509277 .18099976 .097091678 .18099976 .11604309V.3356018C.21499634 .39437867 .269989 .41436769 .31199647 .41436769 .3899994 .41436769 .44999696 .32437135 .44999696 .21636963V.21585083Z"/>
<path id="font_1_23" d="M.19599915 .3766632C.19599915 .406662 .17199707 .43066407 .14199829 .43066407 .11199951 .43066407 .08799744 .406662 .08799744 .3766632 .08799744 .34765626 .11199951 .32266236 .14199829 .32266236 .17199707 .32266236 .19599915 .34765626 .19599915 .3766632M.19599915 .053985597C.19599915 .08299255 .17199707 .10798645 .14199829 .10798645 .11199951 .10798645 .08799744 .08299255 .08799744 .053985597 .08799744 .023986817 .11199951 0 .14199829 0 .17199707 0 .19599915 .023986817 .19599915 .053985597Z"/>
<path id="font_1_52" d="M.26098634 0V.0309906C.19499207 .0309906 .18399048 .0309906 .18399048 .07701111V.69433596L.035995485 .6826172V.6516113C.10398865 .6516113 .11299133 .64460757 .11299133 .5956421V.07696533C.11299133 .0309906 .101989749 .0309906 .035995485 .0309906V0C.08299255 .0019989014 .101989749 .0029907227 .147995 .0029907227 .19499207 .0029907227 .21199036 .0019989014 .26098634 0Z"/>
<path id="font_1_55" d="M.48399354 .21324158C.48399354 .34423829 .37998963 .4482422 .25698854 .4482422 .12998963 .4482422 .0289917 .3412323 .0289917 .21324158 .0289917 .08824158 .1329956-.0107421879 .2559967-.0107421879 .3829956-.0107421879 .48399354 .09024048 .48399354 .21324158M.397995 .22224427C.397995 .1852417 .397995 .12724304 .37298585 .08325195 .34498597 .037246705 .29899598 .01725769 .25698854 .01725769 .20698548 .01725769 .16499329 .042251588 .14199829 .08125305 .115997318 .12324524 .114990238 .17623902 .114990238 .22224427 .114990238 .25924684 .114990238 .3162384 .13999939 .35723878 .16999817 .40823365 .21998596 .42323304 .2559967 .42323304 .31298829 .42323304 .35398866 .39123536 .37399293 .35723878 .39698792 .31523133 .397995 .26423646 .397995 .22224427Z"/>
<path id="font_1_44" d="M.5399933 0V.0309906C.47200013 .0309906 .46299745 .037994386 .46299745 .087020877V.69433596L.31498719 .6826172V.6516113C.3829956 .6516113 .3919983 .64463809 .3919983 .59580996V.38339234C.3869934 .38938905 .34199525 .4423828 .2639923 .4423828 .14099121 .4423828 .033996583 .3443756 .033996583 .21525574 .033996583 .09013367 .13398743-.0107421879 .25299073-.0107421879 .32598878-.0107421879 .37098695 .03224182 .3889923 .053115846V-.0107421879L.5399933 0M.3889923 .12011719C.3889923 .10211182 .3889923 .099121097 .37399293 .078125 .34298707 .033218385 .29699708 .014251709 .25698854 .014251709 .21398926 .014251709 .17399597 .038208009 .147995 .0801239 .12199402 .12312317 .11999512 .18218994 .11999512 .21421814 .11999512 .26127626 .12599182 .3143463 .1519928 .35438539 .17399597 .38638307 .21499634 .41737367 .2679901 .41737367 .30999757 .41737367 .34999085 .39637757 .3769989 .35839845 .3889923 .3423767 .3889923 .34136964 .3889923 .32235719V.12011719Z"/>
<path id="font_1_46" d="M.3659973 .6340637C.3659973 .67207339 .32798768 .7050781 .272995 .7050781 .19499207 .7046509 .11299133 .6456604 .11299133 .5456543V.43066407H.033996583V.3996582H.11299133V.07695007C.11299133 .0309906 .101989749 .0309906 .035995485 .0309906V0C.08898926 .0019989014 .101989749 .0029907227 .15299988 .0029907227L.27999879 0V.0309906H.2599945C.18699646 .0309906 .18399048 .04197693 .18399048 .078948978V.3996582H.2999878V.43066407H.18099976V.5436554C.18099976 .6350708 .22999573 .68006899 .272995 .68006899 .2829895 .68006899 .29299928 .67807009 .30299378 .67407229 .29299928 .67007449 .2769928 .6580658 .2769928 .6330719 .2769928 .6070709 .29599 .58906558 .32099916 .58906558 .34799195 .58906558 .3659973 .60806277 .3659973 .6340637Z"/>
<path id="font_1_61" d="M.5469971 .00024414063V.03125C.47898866 .03125 .46998597 .038253786 .46998597 .087265018V.4423828L.31900025 .43138124V.40037538C.3869934 .40037538 .3959961 .39337159 .3959961 .34436036V.16729737C.3959961 .07826233 .34599305 .014251709 .27398683 .014251709 .19099427 .014251709 .18598938 .057266237 .18598938 .11128235V.4423828L.034988405 .43138124V.40037538C.11199951 .40037538 .11199951 .39736939 .11199951 .3083496V.15829468C.11199951 .09327698 .11199951 .051254274 .1579895 .01625061 .18699646-.003753662 .22799683-.0107421879 .2679901-.0107421879 .31999208-.0107421879 .36898805 .012252808 .397995 .072265628H.39898683V-.0107421879L.5469971 .00024414063Z"/>
<path id="font_1_10" d="M.20698548 .0019989014C.20698548 .070999149 .18099976 .10798645 .14199829 .10798645 .10699463 .10798645 .08799744 .08099365 .08799744 .053985597 .08799744 .026992798 .10699463 0 .14199829 0 .16699219 0 .18199158 .015991211 .18199158 .015991211 .18199158-.017044068 .18199158-.09919739 .10598755-.17132569 .101989749-.17633057 .101989749-.18135071 .101989749-.18135071 .101989749-.18635559 .10798645-.19335938 .114990238-.19335938 .12599182-.19335938 .20698548-.1162262 .20698548 .0019989014Z"/>
<path id="font_2_6" d="M.5139923 .14329529C.5139923 .14828491 .5109863 .1552887 .5009918 .1552887 .4889984 .1552887 .48799134 .15029907 .48399354 .13128662 .46199037 .044265748 .43998719 .014251709 .40899659 .014251709 .38398744 .014251709 .37799073 .038253786 .37799073 .060272218 .37799073 .073272708 .3829956 .10127258 .38398744 .104278568L.5239868 .6603241C.5279999 .67433169 .5279999 .67633059 .5279999 .68032839 .5279999 .68933108 .5219879 .69433596 .5130005 .69433596 .49899293 .69433596 .41099549 .6863251 .3909912 .6843262 .3809967 .68333438 .36999513 .6823273 .36999513 .665329 .36999513 .6523285 .3809967 .6523285 .39698792 .6523285 .44400025 .6523285 .44400025 .6453247 .44400025 .6363373 .44400025 .6293335 .43499757 .5943451 .42999269 .573349 .41600038 .5193634 .42399598 .550354 .41099549 .4963684L.38198854 .3803711C.36299134 .41638185 .33198548 .4423828 .2869873 .4423828 .17098999 .4423828 .041992189 .30433656 .041992189 .1512909 .041992189 .041259767 .11199951-.0107421879 .1789856-.0107421879 .24398804-.0107421879 .29699708 .043258668 .31298829 .06227112 .32398988 .007247925 .37399293-.0107421879 .4059906-.0107421879 .43499757-.0107421879 .45999146 .002243042 .48199464 .044265748 .5 .07727051 .5139923 .13928223 .5139923 .14329529M.3659973 .3163452 .31698609 .121276859C.31298829 .105285648 .31199647 .103271488 .29599 .08326721 .2599945 .040252687 .21899414 .014251709 .18199158 .014251709 .1329956 .014251709 .115997318 .06526184 .115997318 .10827637 .115997318 .15730286 .14498902 .27233888 .16899109 .32034303 .20098877 .3803711 .24699402 .41737367 .2869873 .41737367 .35398866 .41737367 .36898805 .3363495 .36898805 .3313446 .36898805 .32635499 .36698915 .32034303 .3659973 .3163452Z"/>
<path id="font_3_12" d="M.7409973 .35202027C.7409973 .37402345 .71899417 .37402345 .70399478 .37402345H.09399414C.07899475 .37402345 .056991579 .37402345 .056991579 .35202027 .056991579 .3310089 .07699585 .3310089 .08999634 .3310089H.70799258C.7220001 .3310089 .7409973 .3310089 .7409973 .35202027M.7409973 .14894104C.7409973 .1699524 .7220001 .1699524 .70799258 .1699524H.08999634C.07699585 .1699524 .056991579 .1699524 .056991579 .14894104 .056991579 .12695313 .07899475 .12695313 .09399414 .12695313H.70399478C.71899417 .12695313 .7409973 .12695313 .7409973 .14894104Z"/>
<path id="font_3_3" d="M.43199159 0V.0309906H.3999939C.30699159 .0309906 .3039856 .042999269 .3039856 .08001709V.63912966C.3039856 .6640167 .30299378 .6660156 .27799989 .6660156 .21598816 .60227969 .12399292 .60227969 .09298706 .60227969V.57128909C.11199951 .57128909 .17298889 .57128909 .22698975 .5972748V.08001709C.22698975 .042999269 .22399903 .0309906 .1309967 .0309906H.09899902V0C.1349945 .0029907227 .22399903 .0029907227 .2649994 .0029907227 .30599977 .0029907227 .3959961 .0029907227 .43199159 0Z"/>
<path id="font_1_65" d="M.519989 .3996582V.43066407C.48799134 .42765809 .45700074 .42765809 .44400025 .42765809 .41600038 .42765809 .3849945 .4286499 .35699464 .43066407V.3996582C.40299989 .3976593 .40299989 .36167909 .40299989 .35768128 .40299989 .3466797 .39898683 .33668519 .394989 .32868959L.2939911 .090789798 .18199158 .3526764C.17599488 .3666687 .17599488 .3736725 .17599488 .3736725 .17599488 .3996582 .20999146 .3996582 .23098755 .3996582V.43066407L.11999512 .42765809C.116989139 .42765809 .05999756 .42765809 .020996094 .43066407V.3996582C.06599426 .3996582 .084991458 .3976593 .09700012 .3706665L.25498963-.00016784668 .22999573-.059143068C.20799256-.11212158 .1789856-.18008423 .11399841-.18008423 .08898926-.18008423 .07199097-.167099 .068984989-.16508484 .07699585-.16407776 .10499573-.1560669 .10499573-.12205505 .10499573-.09605408 .085998538-.080062869 .06298828-.080062869 .037994386-.080062869 .019989014-.09605408 .019989014-.123046878 .019989014-.16807556 .06199646-.20507813 .11399841-.20507813 .1789856-.20507813 .22200012-.14706421 .24598694-.092056278L.4269867 .33068849C.43798829 .3566742 .45599366 .3976593 .519989 .3996582Z"/>
<path id="font_1_49" d="M.25299073 0V.0309906C.18798828 .0309906 .18399048 .035995485 .18399048 .075042728V.4423828L.039993287 .43066407V.3996582C.10398865 .3996582 .11299133 .3936615 .11299133 .3447113V.07695007C.11299133 .0309906 .101989749 .0309906 .035995485 .0309906V0C.08099365 .0019989014 .101989749 .0029907227 .1459961 .0029907227 .1619873 .0029907227 .20399475 .0029907227 .25299073 0M.19699097 .6028137C.19699097 .63282778 .17298889 .6568146 .14299011 .6568146 .11299133 .6568146 .08898926 .63282778 .08898926 .6028137 .08898926 .57281497 .11299133 .5488281 .14299011 .5488281 .17298889 .5488281 .19699097 .57281497 .19699097 .6028137Z"/>
<path id="font_1_54" d="M.5469971 0V.0309906C.49598695 .03125 .47099305 .03125 .46998597 .0622406V.25431825C.46998597 .3373413 .46998597 .36636354 .44198609 .4013672 .4189911 .42938233 .3809967 .4423828 .33099366 .4423828 .23799134 .4423828 .19499207 .37335206 .18099976 .34535218H.17999268V.4423828L.034988405 .43066407V.3996582C.102996829 .3996582 .11199951 .39266969 .11199951 .34370423V.07695007C.11199951 .0309906 .100997928 .0309906 .034988405 .0309906V0C.08198547 .0019989014 .100997928 .0029907227 .14898682 .0029907227 .19699097 .0029907227 .20999146 .0019989014 .2630005 0V.0309906C.19699097 .0309906 .18598938 .0309906 .18598938 .07695007V.25878907C.18598938 .36532594 .26098634 .41737367 .32398988 .41737367 .3829956 .41737367 .3959961 .3683319 .3959961 .30825807V.077041629C.3959961 .0309906 .3849945 .0309906 .31900025 .0309906V0C.3659973 .0019989014 .3849945 .0029907227 .43299867 .0029907227 .48098756 .0029907227 .49398805 .0019989014 .5469971 0Z"/>
<path id="font_1_47" d="M.49899293 .40338136C.49899293 .42237855 .4850006 .45336915 .44499208 .45336915 .41600038 .45336915 .37098695 .4423828 .33599855 .40637208 .30899049 .42837525 .269989 .4423828 .22799683 .4423828 .1329956 .4423828 .06098938 .3743744 .06098938 .29537965 .06098938 .2443695 .09098816 .20837403 .10699463 .19337464 .10499573 .19137573 .07699585 .15637207 .07699585 .11038208 .07699585 .07637024 .09298706 .040374757 .11999512 .022369385 .068984989 .005874634 .0289917-.03111267 .0289917-.07809448 .0289917-.14907837 .12799073-.20605469 .2559967-.20605469 .3789978-.20605469 .48399354-.15307617 .48399354-.07609558 .48399354-.035110475 .46499635 .008880615 .42799378 .03288269 .37199403 .067871097 .31399537 .067871097 .21899414 .067871097 .19898987 .067871097 .16699219 .067871097 .15899658 .069885257 .12998963 .075927738 .11099243 .1031189 .11099243 .13534546 .11099243 .15142823 .115997318 .16642761 .125 .1794281 .1499939 .16343689 .18099976 .1484375 .22698975 .1484375 .32199098 .1484375 .3939972 .21643067 .3939972 .29542542 .3939972 .34443666 .3659973 .37843324 .35299684 .39242555 .3929901 .42843629 .43998719 .42843629 .45199586 .42843629 .44699098 .4254303 .43899537 .42042542 .43899537 .4024353 .43899537 .39143373 .44599916 .37243653 .46899415 .37243653 .48298646 .37243653 .49899293 .38243104 .49899293 .40342713V.40338136M.31698609 .29542542C.31698609 .27243043 .31698609 .1754303 .22698975 .1754303 .13798523 .17520142 .13798523 .27326966 .13798523 .2952881 .13798523 .3223114 .13999939 .35632325 .15699768 .38034059 .17199707 .4003601 .19898987 .41537477 .22698975 .41537477 .31698609 .41537477 .31698609 .31829835 .31698609 .2952881V.29542542M.42799378-.07698059C.42799378-.1340332 .35099793-.17906189 .25698854-.17906189 .15899658-.17912293 .084991458-.13212586 .084991458-.07711792 .084991458-.06112671 .09498596 .0048828127 .18099976 .0048828127H.272995C.30499269 .0048828127 .42799378 .0038757325 .42799378-.07711792V-.07698059Z"/>
<path id="font_1_42" d="M.5359955 .21636963C.5359955 .34144593 .43699647 .4423828 .31698609 .4423828 .24899292 .4423828 .20199585 .4073944 .17799378 .38046266V.69433596L.02999878 .68333438V.6523285C.09799194 .6523285 .10699463 .6453247 .10699463 .596344V.00024414063H.1349945L.17199707 .061279298C.20298767 .01725769 .25299073-.0107421879 .30699159-.0107421879 .42599488-.0107421879 .5359955 .08529663 .5359955 .21636963M.44999696 .21737671C.44999696 .17034912 .44400025 .11730957 .41799928 .07728577 .3959961 .045272829 .35499574 .014251709 .3019867 .014251709 .25698854 .014251709 .21899414 .038269044 .19499207 .075286868 .18099976 .09629822 .18099976 .0973053 .18099976 .11631775V.31944276C.18099976 .3384552 .18099976 .33944703 .19198609 .35546876 .22599793 .40141297 .2749939 .41737367 .31298829 .41737367 .35598756 .41737367 .3959961 .39343263 .42199708 .3514557 .44799806 .3084259 .44999696 .24938965 .44999696 .21737671Z"/>
<path id="font_1_24" d="M.19599915 .3766632C.19599915 .406662 .17199707 .43066407 .14199829 .43066407 .11199951 .43066407 .08799744 .406662 .08799744 .3766632 .08799744 .34765626 .11199951 .32266236 .14199829 .32266236 .17199707 .32266236 .19599915 .34765626 .19599915 .3766632M.19898987 .0039978029C.19898987 .0289917 .19898987 .10798645 .14099121 .10798645 .10998535 .10798645 .08799744 .083999637 .08799744 .053985597 .08799744 .026992798 .10699463 0 .14199829 0 .1619873 0 .16799927 .0039978029 .17399597 .008987427 .17399597-.015029907 .17298889-.095184329 .10998535-.16731262 .101989749-.17633057 .101989749-.17733765 .101989749-.18135071 .101989749-.18635559 .10798645-.19335938 .114990238-.19335938 .12399292-.19335938 .19898987-.1162262 .19898987 .0039978029Z"/>
<path id="font_1_14" d="M.43199159 0V.0309906H.3999939C.30699159 .0309906 .3039856 .042999269 .3039856 .08001709V.63912966C.3039856 .6640167 .30299378 .6660156 .27799989 .6660156 .21598816 .60227969 .12399292 .60227969 .09298706 .60227969V.57128909C.11199951 .57128909 .17298889 .57128909 .22698975 .5972748V.08001709C.22698975 .042999269 .22399903 .0309906 .1309967 .0309906H.09899902V0C.1349945 .0029907227 .22399903 .0029907227 .2649994 .0029907227 .30599977 .0029907227 .3959961 .0029907227 .43199159 0Z"/>
<path id="font_1_17" d="M.48399354 .16503906V.19602967H.38198854V.649765C.38198854 .669754 .38198854 .6767578 .36299134 .6767578 .35099793 .6767578 .34999085 .67575076 .34098817 .6617584L.0289917 .19602967V.16503906H.3019867V.07901001C.3019867 .041992189 .29899598 .0309906 .22399903 .0309906H.20199585V0C.2649994 .0029907227 .33499146 .0029907227 .34199525 .0029907227 .34700013 .0029907227 .4189911 .0029907227 .48199464 0V.0309906H.45999146C.3849945 .0309906 .38198854 .041992189 .38198854 .07901001V.16503906H.48399354M.30799867 .19602967H.06098938L.30799867 .56581118V.19602967Z"/>
<path id="font_2_1" d="M.56399539 .00030517579C.56399539 .0052948 .56199648 .007293701 .55799868 .011291504 .54599 .024291993 .54100039 .03729248 .5349884 .05430603L.32199098 .6263275C.29899598 .68733218 .23298645 .69433596 .19699097 .69433596 .18798828 .69433596 .1749878 .69433596 .1749878 .68133547 .1749878 .6713257 .18299866 .67033389 .19400025 .6693268 .22399903 .6643219 .23599243 .636322 .25099183 .59931948L.35398866 .3223114 .07199097 .05029297C.06199646 .040298463 .053985597 .033294679 .053985597 .018295289 .053985597-.0027008057 .07199097-.0126953129 .085998538-.0126953129 .102996829-.0126953129 .114990238 .0023040772 .11898804 .00630188L.3659973 .28930665C.42399598 .14030457 .46199037 .028305054 .47099305 .015304565 .4909973-.010696411 .49899293-.010696411 .5289917-.010696411H.5519867C.5589905-.00970459 .56399539-.0066986086 .56399539 .00030517579Z"/>
<path id="font_2_2" d="M.19599915 .053985597C.19599915 .08299255 .17298889 .10798645 .14199829 .10798645 .11099243 .10798645 .08799744 .08299255 .08799744 .053985597 .08799744 .024993897 .11099243 0 .14199829 0 .17298889 0 .19599915 .024993897 .19599915 .053985597Z"/>
<path id="font_3_4" d="M.46199037 .17704773H.43399049C.43199159 .16404724 .42399598 .10501099 .41099549 .08900452 .40499879 .07998657 .33599855 .07998657 .31599427 .07998657H.13798523L.23699951 .17404175C.40098573 .3161316 .46199037 .36915589 .46199037 .4711914 .46199037 .5860901 .36698915 .6660156 .24398804 .6660156 .1289978 .6660156 .050994874 .575119 .050994874 .4841919 .050994874 .43418885 .09399414 .42919923 .102996829 .42919923 .125 .42919923 .15499878 .44519044 .15499878 .48120118 .15499878 .51119998 .13398743 .5332031 .102996829 .5332031 .09799194 .5332031 .09498596 .5332031 .09098816 .53219607 .114990238 .6030731 .1789856 .63500979 .23298645 .63500979 .33499146 .63500979 .36999513 .5401764 .36999513 .4711914 .36999513 .36915589 .29299928 .28611756 .24499512 .23408509L.06199646 .035995485C.050994874 .024993897 .050994874 .022994996 .050994874 0H.43399049L.46199037 .17704773Z"/>
<path id="font_3_7" d="M.46199037 .19992066C.46199037 .3209076 .37599183 .41992188 .2669983 .41992188 .21899414 .41992188 .16999817 .4039154 .1349945 .36791993V.5647888C.16499329 .55578616 .19599915 .55078127 .22698975 .55078127 .34999085 .55078127 .42199708 .63983157 .42199708 .6529236 .42199708 .6619873 .41600038 .6660156 .41099549 .6660156 .41099549 .6660156 .40699769 .6660156 .397995 .6609802 .35099793 .6418457 .30499269 .63378909 .2630005 .63378909 .21998596 .63378909 .1749878 .6418457 .1289978 .6609802 .11898804 .6660156 .115997318 .6660156 .115997318 .6660156 .10398865 .6660156 .10398865 .6559448 .10398865 .63882449V.34490968C.10398865 .32699586 .10398865 .31599427 .117996219 .31599427 .12599182 .31562806 .1289978 .3196411 .1349945 .32867433 .16499329 .37083436 .21299744 .39491273 .2649994 .39491273 .37199403 .39491273 .37199403 .24035645 .37199403 .20422364 .37199403 .17321778 .37199403 .11122131 .34399415 .06636047 .31698609 .024475098 .2749939 .0055389406 .23599243 .0055389406 .1769867 .0055389406 .10998535 .042419435 .085998538 .11621094 .085998538 .116882327 .09298706 .11488342 .099990848 .11488342 .11999512 .11488342 .14898682 .12788391 .14898682 .1638794 .14898682 .19488526 .1269989 .21289063 .099990848 .21289063 .07899475 .21289063 .050994874 .20088196 .050994874 .16088867 .050994874 .069732669 .1269989-.022460938 .23799134-.022460938 .35899354-.02279663 .46199037 .07521057 .46199037 .19921875V.19992066Z"/>
<path id="font_1_5" d="M.5399933 0V.0309906C.47399903 .0309906 .46299745 .0309906 .46299745 .07695007V.44265748L.33299256 .4336548C.31698609 .43266297 .31498719 .43165589 .31498719 .43165589 .31298829 .43066407 .31098939 .43066407 .29699708 .43066407H.1749878V.5406494C.1749878 .6446533 .2689972 .68006899 .32598878 .68006899 .34899903 .68006899 .3869934 .6739807 .4119873 .6496582 .37298585 .6456604 .36698915 .61465457 .36698915 .60266116 .36698915 .57266238 .3909912 .55566409 .4139862 .55566409 .44099427 .55566409 .46199037 .57466128 .46199037 .60266116 .46199037 .65979006 .40699769 .7050781 .32699586 .7050781 .22698975 .7050781 .10699463 .6506653 .10699463 .5436554V.43066407H.027999878V.3996582H.10699463V.07695007C.10699463 .0309906 .09599304 .0309906 .02999878 .0309906V0C.07699585 .0019989014 .09599304 .0029907227 .14199829 .0029907227 .18899536 .0029907227 .20599365 .0019989014 .25498963 0V.0309906C.18899536 .0309906 .17799378 .0309906 .17799378 .07695007V.3996582H.33898927C.38598634 .3996582 .3919983 .38667298 .3919983 .34570313V.07695007C.3919983 .0309906 .3809967 .0309906 .31498719 .0309906V0C.3619995 .0019989014 .3809967 .0029907227 .4269867 .0029907227 .47399903 .0029907227 .4909973 .0019989014 .5399933 0Z"/>
<path id="font_1_63" d="M.72099307 .3996582V.43066407C.68099978 .42765809 .67900088 .42765809 .6459961 .42765809 .60798647 .42765809 .59399417 .42765809 .55400088 .43066407V.3996582C.5970001 .39865113 .61099246 .3717041 .61099246 .35173036 .61099246 .34173585 .60899356 .3357544 .60598757 .32876588L.5139923 .07911682 .41299439 .35272218C.4079895 .3657074 .4079895 .36869813 .4079895 .3717041 .4079895 .3976593 .43899537 .3996582 .46499635 .3996582V.43066407C.4189911 .42765809 .37799073 .42765809 .3619995 .42765809 .33099366 .42765809 .3019867 .42765809 .269989 .43066407V.3996582C.3019867 .3996582 .32199098 .39865113 .33299256 .38467408 .34199525 .37368775 .35499574 .3337555 .35499574 .3307495L.34999085 .31677247 .2679901 .09210205 .17298889 .35173036C.16699219 .36669923 .16699219 .36869813 .16699219 .37269593 .16699219 .3996582 .20599365 .3996582 .22499085 .3996582V.43066407L.115997318 .42765809C.08299255 .42765809 .053985597 .42765809 .019989014 .43066407V.3996582C.067993167 .3996582 .08099365 .3976593 .09298706 .3637085L.22200012 .01121521C.22698975-.00076293948 .22999573-.0107421879 .24499512-.0107421879 .2599945-.0107421879 .2639923 .00022888184 .2679901 .010223389L.36999513 .28981019 .47299195 .010223389C.47698976 .00022888184 .48098756-.0107421879 .49598695-.0107421879 .5109863-.0107421879 .5139923-.00076293948 .5179901 .009216309L.6369934 .3337555C.6589966 .39466859 .69999697 .39865113 .72099307 .3996582Z"/>
<path id="font_1_50" d="M.21798706-.047973634V.4423828L.06199646 .43138124V.40037538C.13798523 .40037538 .14698792 .39337159 .14698792 .34432984V-.050979616C.14698792-.08000183 .14299011-.18008423 .07499695-.18008423 .07199097-.18008423 .04598999-.18008423 .021987915-.16807556 .053985597-.1580658 .053985597-.13005066 .053985597-.1240387 .053985597-.09802246 .034988405-.07800293 .0079956059-.07800293-.021011353-.07800293-.039001466-.09802246-.039001466-.12504578-.039001466-.17707825 .018997193-.20507813 .07598877-.20507813 .15499878-.20500183 .21798706-.14001465 .21798706-.04800415V-.047973634M.21798706 .6032257C.21798706 .6332245 .19400025 .65722659 .1639862 .65722659 .13398743 .65722659 .10998535 .6332245 .10998535 .6032257 .10998535 .57321169 .13398743 .54922488 .1639862 .54922488 .19400025 .54922488 .21798706 .57321169 .21798706 .6032257Z"/>
</defs>
<path transform="matrix(1,0,0,-1,71.80013,43.459314)" d="M0 0V34.01608H170.08086V0ZM170.08086 34.01608" fill="#d6ecf0"/>
<path transform="matrix(1,0,0,-1,71.80013,43.459314)" stroke-width=".3985" stroke-linecap="butt" stroke-miterlimit="10" stroke-linejoin="miter" fill="none" stroke="#a1c5cb" d="M0 0H170.08086M0 8.50412H170.08086M0 17.00824H170.08086M0 25.51236H170.08086M0 34.00653H170.08086M0 0V34.01608M8.50412 0V34.01608M17.00824 0V34.01608M25.51236 0V34.01608M34.01648 0V34.01608M42.52061 0V34.01608M51.02473 0V34.01608M59.52885 0V34.01608M68.03297 0V34.01608M76.53711 0V34.01608M85.04123 0V34.01608M93.54535 0V34.01608M102.04947 0V34.01608M110.5536 0V34.01608M119.05772 0V34.01608M127.56184 0V34.01608M136.06597 0V34.01608M144.5701 0V34.01608M153.07422 0V34.01608M161.57834 0V34.01608M170.07251 0V34.01608M170.08086 34.01608"/>
<path transform="matrix(1,0,0,-1,71.80013,43.459314)" stroke-width=".3985" stroke-linecap="butt" stroke-miterlimit="10" stroke-linejoin="miter" fill="none" stroke="#17324d" d="M0 0V34.01608H170.08086V0ZM170.08086 34.01608"/>
<path transform="matrix(1,0,0,-1,71.80013,43.459314)" d="M78.80406 8.50412C78.80406 9.75659 77.78876 10.7719 76.53629 10.7719 75.28381 10.7719 74.2685 9.75659 74.2685 8.50412 74.2685 7.25163 75.28381 6.23633 76.53629 6.23633 77.78876 6.23633 78.80406 7.25163 78.80406 8.50412ZM76.53629 8.50412" fill="#c8742b"/>
<path transform="matrix(1,0,0,-1,71.80013,43.459314)" d="M87.30821 8.50412C87.30821 9.75659 86.2929 10.7719 85.04042 10.7719 83.78795 10.7719 82.77263 9.75659 82.77263 8.50412 82.77263 7.25163 83.78795 6.23633 85.04042 6.23633 86.2929 6.23633 87.30821 7.25163 87.30821 8.50412ZM85.04042 8.50412" fill="#c8742b"/>
<path transform="matrix(1,0,0,-1,71.80013,43.459314)" d="M95.81233 17.00824C95.81233 18.26071 94.79703 19.27603 93.54454 19.27603 92.29207 19.27603 91.27676 18.26071 91.27676 17.00824 91.27676 15.75577 92.29207 14.74045 93.54454 14.74045 94.79703 14.74045 95.81233 15.75577 95.81233 17.00824ZM93.54454 17.00824" fill="#c8742b"/>
<path transform="matrix(1,0,0,-1,71.80013,43.459314)" d="M104.31645 17.00824C104.31645 18.26071 103.30115 19.27603 102.04868 19.27603 100.79619 19.27603 99.78088 18.26071 99.78088 17.00824 99.78088 15.75577 100.79619 14.74045 102.04868 14.74045 103.30115 14.74045 104.31645 15.75577 104.31645 17.00824ZM102.04868 17.00824" fill="#c8742b"/>
<path transform="matrix(1,0,0,-1,71.80013,43.459314)" stroke-width="1.19553" stroke-linecap="butt" stroke-miterlimit="10" stroke-linejoin="miter" fill="none" stroke="#c8742b" d="M76.53629 8.50412H85.04042L93.54454 17.00824H102.04868C102.04868 29.76422 76.53629 29.76422 76.53629 8.50412"/>
<path transform="matrix(1,0,0,-1,71.80013,43.459314)" stroke-width=".3985" stroke-linecap="butt" stroke-miterlimit="10" stroke-linejoin="miter" fill="none" stroke="#c8742b" d="M104.88309 21.2601 178.58498 26.92937"/>
<use data-text="t" xlink:href="#font_1_60" transform="matrix(8.966376,0,0,-8.966376,257.05479,12.853813)" fill="#c8742b"/>
<use data-text="h" xlink:href="#font_1_48" transform="matrix(8.966376,0,0,-8.966376,260.64134,12.853813)" fill="#c8742b"/>
<use data-text="e" xlink:href="#font_1_45" transform="matrix(8.966376,0,0,-8.966376,265.7611,12.853813)" fill="#c8742b"/>
<use data-text="s" xlink:href="#font_1_59" transform="matrix(8.966376,0,0,-8.966376,272.92527,12.853813)" fill="#c8742b"/>
<use data-text="c" xlink:href="#font_1_43" transform="matrix(8.966376,0,0,-8.966376,276.55665,12.853813)" fill="#c8742b"/>
<use data-text="r" xlink:href="#font_1_58" transform="matrix(8.966376,0,0,-8.966376,280.65428,12.853813)" fill="#c8742b"/>
<use data-text="a" xlink:href="#font_1_41" transform="matrix(8.966376,0,0,-8.966376,284.25877,12.853813)" fill="#c8742b"/>
<use data-text="p" xlink:href="#font_1_56" transform="matrix(8.966376,0,0,-8.966376,288.86747,12.853813)" fill="#c8742b"/>
<use data-text=":" xlink:href="#font_1_23" transform="matrix(8.966376,0,0,-8.966376,293.98728,12.853813)" fill="#c8742b"/>
<use data-text="a" xlink:href="#font_1_41" transform="matrix(8.966376,0,0,-8.966376,300.6493,12.853813)" fill="#c8742b"/>
<use data-text="c" xlink:href="#font_1_43" transform="matrix(8.966376,0,0,-8.966376,308.32453,12.853813)" fill="#c8742b"/>
<use data-text="l" xlink:href="#font_1_52" transform="matrix(8.966376,0,0,-8.966376,312.42216,12.853813)" fill="#c8742b"/>
<use data-text="o" xlink:href="#font_1_55" transform="matrix(8.966376,0,0,-8.966376,314.9865,12.853813)" fill="#c8742b"/>
<use data-text="s" xlink:href="#font_1_59" transform="matrix(8.966376,0,0,-8.966376,319.59526,12.853813)" fill="#c8742b"/>
<use data-text="e" xlink:href="#font_1_45" transform="matrix(8.966376,0,0,-8.966376,323.22663,12.853813)" fill="#c8742b"/>
<use data-text="d" xlink:href="#font_1_44" transform="matrix(8.966376,0,0,-8.966376,327.32429,12.853813)" fill="#c8742b"/>
<use data-text="l" xlink:href="#font_1_52" transform="matrix(8.966376,0,0,-8.966376,335.51954,12.853813)" fill="#c8742b"/>
<use data-text="o" xlink:href="#font_1_55" transform="matrix(8.966376,0,0,-8.966376,338.08393,12.853813)" fill="#c8742b"/>
<use data-text="o" xlink:href="#font_1_55" transform="matrix(8.966376,0,0,-8.966376,342.95268,12.853813)" fill="#c8742b"/>
<use data-text="p" xlink:href="#font_1_56" transform="matrix(8.966376,0,0,-8.966376,347.5614,12.853813)" fill="#c8742b"/>
<use data-text="o" xlink:href="#font_1_55" transform="matrix(8.966376,0,0,-8.966376,355.74769,12.853813)" fill="#c8742b"/>
<use data-text="f" xlink:href="#font_1_46" transform="matrix(8.966376,0,0,-8.966376,360.3564,12.853813)" fill="#c8742b"/>
<use data-text="f" xlink:href="#font_1_46" transform="matrix(8.966376,0,0,-8.966376,366.2473,12.853813)" fill="#c8742b"/>
<use data-text="o" xlink:href="#font_1_55" transform="matrix(8.966376,0,0,-8.966376,369.06278,12.853813)" fill="#c8742b"/>
<use data-text="u" xlink:href="#font_1_61" transform="matrix(8.966376,0,0,-8.966376,373.67149,12.853813)" fill="#c8742b"/>
<use data-text="r" xlink:href="#font_1_58" transform="matrix(8.966376,0,0,-8.966376,378.7913,12.853813)" fill="#c8742b"/>
<use data-text="d" xlink:href="#font_1_44" transform="matrix(8.966376,0,0,-8.966376,385.46229,12.853813)" fill="#c8742b"/>
<use data-text="o" xlink:href="#font_1_55" transform="matrix(8.966376,0,0,-8.966376,390.5821,12.853813)" fill="#c8742b"/>
<use data-text="t" xlink:href="#font_1_60" transform="matrix(8.966376,0,0,-8.966376,395.1908,12.853813)" fill="#c8742b"/>
<use data-text="s" xlink:href="#font_1_59" transform="matrix(8.966376,0,0,-8.966376,398.77735,12.853813)" fill="#c8742b"/>
<use data-text="," xlink:href="#font_1_10" transform="matrix(8.966376,0,0,-8.966376,402.40873,12.853813)" fill="#c8742b"/>
<use data-text="d" xlink:href="#font_2_6" transform="matrix(8.966376,0,0,-8.966376,408.03157,12.853813)" fill="#c8742b"/>
<use data-text="=" xlink:href="#font_3_12" transform="matrix(8.966376,0,0,-8.966376,415.36616,12.853813)" fill="#c8742b"/>
<use data-text="1" xlink:href="#font_3_3" transform="matrix(8.966376,0,0,-8.966376,425.0857,12.853813)" fill="#c8742b"/>
<use data-text="," xlink:href="#font_1_10" transform="matrix(8.966376,0,0,-8.966376,429.7013,12.853813)" fill="#c8742b"/>
<use data-text="l" xlink:href="#font_1_52" transform="matrix(8.966376,0,0,-8.966376,257.05476,24.689454)" fill="#c8742b"/>
<use data-text="y" xlink:href="#font_1_65" transform="matrix(8.966376,0,0,-8.966376,259.61915,24.689454)" fill="#c8742b"/>
<use data-text="i" xlink:href="#font_1_49" transform="matrix(8.966376,0,0,-8.966376,264.4789,24.689454)" fill="#c8742b"/>
<use data-text="n" xlink:href="#font_1_54" transform="matrix(8.966376,0,0,-8.966376,267.0433,24.689454)" fill="#c8742b"/>
<use data-text="g" xlink:href="#font_1_47" transform="matrix(8.966376,0,0,-8.966376,272.16313,24.689454)" fill="#c8742b"/>
<use data-text="a" xlink:href="#font_1_41" transform="matrix(8.966376,0,0,-8.966376,279.83833,24.689454)" fill="#c8742b"/>
<use data-text="l" xlink:href="#font_1_52" transform="matrix(8.966376,0,0,-8.966376,284.44706,24.689454)" fill="#c8742b"/>
<use data-text="o" xlink:href="#font_1_55" transform="matrix(8.966376,0,0,-8.966376,287.0114,24.689454)" fill="#c8742b"/>
<use data-text="n" xlink:href="#font_1_54" transform="matrix(8.966376,0,0,-8.966376,291.62016,24.689454)" fill="#c8742b"/>
<use data-text="g" xlink:href="#font_1_47" transform="matrix(8.966376,0,0,-8.966376,296.73997,24.689454)" fill="#c8742b"/>
<use data-text="t" xlink:href="#font_1_60" transform="matrix(8.966376,0,0,-8.966376,304.42414,24.689454)" fill="#c8742b"/>
<use data-text="h" xlink:href="#font_1_48" transform="matrix(8.966376,0,0,-8.966376,308.01069,24.689454)" fill="#c8742b"/>
<use data-text="e" xlink:href="#font_1_45" transform="matrix(8.966376,0,0,-8.966376,313.1305,24.689454)" fill="#c8742b"/>
<use data-text="o" xlink:href="#font_1_55" transform="matrix(8.966376,0,0,-8.966376,320.29463,24.689454)" fill="#c8742b"/>
<use data-text="l" xlink:href="#font_1_52" transform="matrix(8.966376,0,0,-8.966376,324.90333,24.689454)" fill="#c8742b"/>
<use data-text="d" xlink:href="#font_1_44" transform="matrix(8.966376,0,0,-8.966376,327.4677,24.689454)" fill="#c8742b"/>
<use data-text="t" xlink:href="#font_1_60" transform="matrix(8.966376,0,0,-8.966376,335.663,24.689454)" fill="#c8742b"/>
<use data-text="u" xlink:href="#font_1_61" transform="matrix(8.966376,0,0,-8.966376,339.24955,24.689454)" fill="#c8742b"/>
<use data-text="b" xlink:href="#font_1_42" transform="matrix(8.966376,0,0,-8.966376,344.36936,24.689454)" fill="#c8742b"/>
<use data-text="e" xlink:href="#font_1_45" transform="matrix(8.966376,0,0,-8.966376,349.7402,24.689454)" fill="#c8742b"/>
<use data-text=";" xlink:href="#font_1_24" transform="matrix(8.966376,0,0,-8.966376,353.83784,24.689454)" fill="#c8742b"/>
<use data-text="1" xlink:href="#font_1_14" transform="matrix(8.966376,0,0,-8.966376,359.4777,24.689454)" fill="#c8742b"/>
<use data-text="4" xlink:href="#font_1_17" transform="matrix(8.966376,0,0,-8.966376,364.08644,24.689454)" fill="#c8742b"/>
<use data-text="u" xlink:href="#font_1_61" transform="matrix(8.966376,0,0,-8.966376,371.7706,24.689454)" fill="#c8742b"/>
<use data-text="n" xlink:href="#font_1_54" transform="matrix(8.966376,0,0,-8.966376,376.8904,24.689454)" fill="#c8742b"/>
<use data-text="i" xlink:href="#font_1_49" transform="matrix(8.966376,0,0,-8.966376,382.01023,24.689454)" fill="#c8742b"/>
<use data-text="t" xlink:href="#font_1_60" transform="matrix(8.966376,0,0,-8.966376,384.5746,24.689454)" fill="#c8742b"/>
<use data-text="s" xlink:href="#font_1_59" transform="matrix(8.966376,0,0,-8.966376,388.16114,24.689454)" fill="#c8742b"/>
<use data-text="a" xlink:href="#font_1_41" transform="matrix(8.966376,0,0,-8.966376,394.859,24.689454)" fill="#c8742b"/>
<use data-text="t" xlink:href="#font_1_60" transform="matrix(8.966376,0,0,-8.966376,399.46775,24.689454)" fill="#c8742b"/>
<use data-text="&#x03bb;" xlink:href="#font_2_1" transform="matrix(8.966376,0,0,-8.966376,406.09608,24.689454)" fill="#c8742b"/>
<use data-text="=" xlink:href="#font_3_12" transform="matrix(8.966376,0,0,-8.966376,414.03157,24.689454)" fill="#c8742b"/>
<use data-text="1" xlink:href="#font_3_3" transform="matrix(8.966376,0,0,-8.966376,423.7511,24.689454)" fill="#c8742b"/>
<use data-text="." xlink:href="#font_2_2" transform="matrix(8.966376,0,0,-8.966376,428.3667,24.689454)" fill="#c8742b"/>
<use data-text="2" xlink:href="#font_3_4" transform="matrix(8.966376,0,0,-8.966376,430.92655,24.689454)" fill="#c8742b"/>
<use data-text="5" xlink:href="#font_3_7" transform="matrix(8.966376,0,0,-8.966376,435.53529,24.689454)" fill="#c8742b"/>
<use data-text="t" xlink:href="#font_1_60" transform="matrix(8.966376,0,0,-8.966376,48.92215,58.431985)" fill="#17324d"/>
<use data-text="h" xlink:href="#font_1_48" transform="matrix(8.966376,0,0,-8.966376,52.5087,58.431985)" fill="#17324d"/>
<use data-text="e" xlink:href="#font_1_45" transform="matrix(8.966376,0,0,-8.966376,57.6285,58.431985)" fill="#17324d"/>
<use data-text="&#xfb01;" xlink:href="#font_1_5" transform="matrix(8.966376,0,0,-8.966376,64.79263,58.431985)" fill="#17324d"/>
<use data-text="n" xlink:href="#font_1_54" transform="matrix(8.966376,0,0,-8.966376,69.91244,58.431985)" fill="#17324d"/>
<use data-text="i" xlink:href="#font_1_49" transform="matrix(8.966376,0,0,-8.966376,75.03224,58.431985)" fill="#17324d"/>
<use data-text="s" xlink:href="#font_1_59" transform="matrix(8.966376,0,0,-8.966376,77.59662,58.431985)" fill="#17324d"/>
<use data-text="h" xlink:href="#font_1_48" transform="matrix(8.966376,0,0,-8.966376,81.228008,58.431985)" fill="#17324d"/>
<use data-text="e" xlink:href="#font_1_45" transform="matrix(8.966376,0,0,-8.966376,86.34781,58.431985)" fill="#17324d"/>
<use data-text="d" xlink:href="#font_1_44" transform="matrix(8.966376,0,0,-8.966376,90.445438,58.431985)" fill="#17324d"/>
<use data-text="s" xlink:href="#font_1_59" transform="matrix(8.966376,0,0,-8.966376,98.6407,58.431985)" fill="#17324d"/>
<use data-text="h" xlink:href="#font_1_48" transform="matrix(8.966376,0,0,-8.966376,102.27209,58.431985)" fill="#17324d"/>
<use data-text="e" xlink:href="#font_1_45" transform="matrix(8.966376,0,0,-8.966376,107.39189,58.431985)" fill="#17324d"/>
<use data-text="e" xlink:href="#font_1_45" transform="matrix(8.966376,0,0,-8.966376,111.48952,58.431985)" fill="#17324d"/>
<use data-text="t" xlink:href="#font_1_60" transform="matrix(8.966376,0,0,-8.966376,115.58716,58.431985)" fill="#17324d"/>
<use data-text="," xlink:href="#font_1_10" transform="matrix(8.966376,0,0,-8.966376,119.173709,58.431985)" fill="#17324d"/>
<use data-text="d" xlink:href="#font_1_44" transform="matrix(8.966376,0,0,-8.966376,124.80458,58.431985)" fill="#17324d"/>
<use data-text="r" xlink:href="#font_1_58" transform="matrix(8.966376,0,0,-8.966376,129.9244,58.431985)" fill="#17324d"/>
<use data-text="a" xlink:href="#font_1_41" transform="matrix(8.966376,0,0,-8.966376,133.52887,58.431985)" fill="#17324d"/>
<use data-text="w" xlink:href="#font_1_63" transform="matrix(8.966376,0,0,-8.966376,137.8955,58.431985)" fill="#17324d"/>
<use data-text="n" xlink:href="#font_1_54" transform="matrix(8.966376,0,0,-8.966376,144.54856,58.431985)" fill="#17324d"/>
<use data-text="u" xlink:href="#font_1_61" transform="matrix(8.966376,0,0,-8.966376,152.72589,58.431985)" fill="#17324d"/>
<use data-text="n" xlink:href="#font_1_54" transform="matrix(8.966376,0,0,-8.966376,157.84569,58.431985)" fill="#17324d"/>
<use data-text="r" xlink:href="#font_1_58" transform="matrix(8.966376,0,0,-8.966376,162.9655,58.431985)" fill="#17324d"/>
<use data-text="o" xlink:href="#font_1_55" transform="matrix(8.966376,0,0,-8.966376,166.56998,58.431985)" fill="#17324d"/>
<use data-text="l" xlink:href="#font_1_52" transform="matrix(8.966376,0,0,-8.966376,171.1787,58.431985)" fill="#17324d"/>
<use data-text="l" xlink:href="#font_1_52" transform="matrix(8.966376,0,0,-8.966376,173.74309,58.431985)" fill="#17324d"/>
<use data-text="e" xlink:href="#font_1_45" transform="matrix(8.966376,0,0,-8.966376,176.30747,58.431985)" fill="#17324d"/>
<use data-text="d" xlink:href="#font_1_44" transform="matrix(8.966376,0,0,-8.966376,180.4051,58.431985)" fill="#17324d"/>
<use data-text=";" xlink:href="#font_1_24" transform="matrix(8.966376,0,0,-8.966376,185.5249,58.431985)" fill="#17324d"/>
<use data-text="i" xlink:href="#font_1_49" transform="matrix(8.966376,0,0,-8.966376,191.16475,58.431985)" fill="#17324d"/>
<use data-text="t" xlink:href="#font_1_60" transform="matrix(8.966376,0,0,-8.966376,193.72913,58.431985)" fill="#17324d"/>
<use data-text="s" xlink:href="#font_1_59" transform="matrix(8.966376,0,0,-8.966376,197.31568,58.431985)" fill="#17324d"/>
<use data-text="e" xlink:href="#font_1_45" transform="matrix(8.966376,0,0,-8.966376,204.01355,58.431985)" fill="#17324d"/>
<use data-text="n" xlink:href="#font_1_54" transform="matrix(8.966376,0,0,-8.966376,208.12017,58.431985)" fill="#17324d"/>
<use data-text="d" xlink:href="#font_1_44" transform="matrix(8.966376,0,0,-8.966376,213.23996,58.431985)" fill="#17324d"/>
<use data-text="s" xlink:href="#font_1_59" transform="matrix(8.966376,0,0,-8.966376,218.35976,58.431985)" fill="#17324d"/>
<use data-text="a" xlink:href="#font_1_41" transform="matrix(8.966376,0,0,-8.966376,225.05764,58.431985)" fill="#17324d"/>
<use data-text="r" xlink:href="#font_1_58" transform="matrix(8.966376,0,0,-8.966376,229.66635,58.431985)" fill="#17324d"/>
<use data-text="e" xlink:href="#font_1_45" transform="matrix(8.966376,0,0,-8.966376,233.27083,58.431985)" fill="#17324d"/>
<use data-text="j" xlink:href="#font_1_50" transform="matrix(8.966376,0,0,-8.966376,240.44394,58.431985)" fill="#17324d"/>
<use data-text="o" xlink:href="#font_1_55" transform="matrix(8.966376,0,0,-8.966376,243.25939,58.431985)" fill="#17324d"/>
<use data-text="i" xlink:href="#font_1_49" transform="matrix(8.966376,0,0,-8.966376,247.8681,58.431985)" fill="#17324d"/>
<use data-text="n" xlink:href="#font_1_54" transform="matrix(8.966376,0,0,-8.966376,250.43248,58.431985)" fill="#17324d"/>
<use data-text="e" xlink:href="#font_1_45" transform="matrix(8.966376,0,0,-8.966376,255.55228,58.431985)" fill="#17324d"/>
<use data-text="d" xlink:href="#font_1_44" transform="matrix(8.966376,0,0,-8.966376,259.6499,58.431985)" fill="#17324d"/>
</svg>
