<svg xmlns="http://www.w3.org/2000/svg" xmlns:xlink="http://www.w3.org/1999/xlink" xmlns:inkscape="http://www.inkscape.org/namespaces/inkscape" version="1.1" width="492.7" height="150.58" viewBox="0 0 492.7 150.58">
<defs>
<path id="font_1_17" d="M.48399354 .16503906V.19602967H.38198854V.649765C.38198854 .669754 .38198854 .6767578 .36299134 .6767578 .35099793 .6767578 .34999085 .67575076 .34098817 .6617584L.0289917 .19602967V.16503906H.3019867V.07901001C.3019867 .041992189 .29899598 .0309906 .22399903 .0309906H.20199585V0C.2649994 .0029907227 .33499146 .0029907227 .34199525 .0029907227 .34700013 .0029907227 .4189911 .0029907227 .48199464 0V.0309906H.45999146C.3849945 .0309906 .38198854 .041992189 .38198854 .07901001V.16503906H.48399354M.30799867 .19602967H.06098938L.30799867 .56581118V.19602967Z"/>
<path id="font_1_21" d="M.46998597 .16764832C.46998597 .26472474 .3959961 .3127594 .37098695 .32876588 .3600006 .33677674 .33099366 .35479737 .31900025 .36180116 .36898805 .38581849 .44198609 .43585206 .44198609 .51690676 .44198609 .6109772 .34799195 .6660156 .2579956 .6660156 .15299988 .6660156 .070999149 .5909729 .070999149 .49890138 .070999149 .46087647 .084991458 .42485047 .10899353 .39582826 .12599182 .3768158 .13198853 .37280274 .18998719 .3357849 .101989749 .29374696 .042999269 .23269654 .042999269 .15063477 .042999269 .044555665 .147995-.022460938 .2559967-.022460938 .37199403-.022460938 .46998597 .059570314 .46998597 .16764832M.3939972 .51690676C.3939972 .44685365 .33399964 .40083314 .2939911 .37780763L.17199707 .45387269C.14199829 .47288514 .11898804 .4998932 .11898804 .53692629 .11898804 .6019745 .18899536 .64100649 .25498963 .64100649 .33198548 .64100649 .3939972 .58695986 .3939972 .51690676M.41600038 .1326294C.41600038 .05357361 .33599855 .0055389406 .25698854 .0055389406 .16999817 .0055389406 .09700012 .06758118 .09700012 .15063477 .09700012 .22268677 .14698792 .28274537 .21699524 .31877137L.34298707 .2407074C.3659973 .22569275 .41600038 .19366455 .41600038 .1326294Z"/>
<path id="font_1_14" d="M.43199159 0V.0309906H.3999939C.30699159 .0309906 .3039856 .042999269 .3039856 .08001709V.63912966C.3039856 .6640167 .30299378 .6660156 .27799989 .6660156 .21598816 .60227969 .12399292 .60227969 .09298706 .60227969V.57128909C.11199951 .57128909 .17298889 .57128909 .22698975 .5972748V.08001709C.22698975 .042999269 .22399903 .0309906 .1309967 .0309906H.09899902V0C.1349945 .0029907227 .22399903 .0029907227 .2649994 .0029907227 .30599977 .0029907227 .3959961 .0029907227 .43199159 0Z"/>
<path id="font_1_13" d="M.47299195 .31976319C.47299195 .38682557 .46998597 .47288514 .43499757 .5479431 .3909912 .64201357 .31498719 .6660156 .25698854 .6660156 .19699097 .6660156 .12098694 .64201357 .07699585 .5459442 .04499817 .47688294 .039993287 .39582826 .039993287 .31976319 .039993287 .25471498 .041992189 .15765381 .084991458 .07858276 .13198853-.0064697267 .20999146-.022460938 .2559967-.022460938 .32099916-.022460938 .394989 .0055389406 .43699647 .097595218 .46699525 .1646576 .47299195 .23971558 .47299195 .31976319M.3869934 .33177186C.3869934 .2697296 .3869934 .18566895 .3769989 .12661743 .35598756 .012542725 .28199769 .002532959 .25698854 .002532959 .22698975 .002532959 .15499878 .016540528 .13598633 .12962342 .12599182 .18867493 .12599182 .2747345 .12599182 .33177186 .12599182 .39982606 .12599182 .47888185 .13798523 .53393557 .1579895 .6230011 .22200012 .64100649 .2559967 .64100649 .2939911 .64100649 .35699464 .62098696 .37599183 .5279236 .3869934 .47288514 .3869934 .39482118 .3869934 .33177186Z"/>
<path id="font_1_15" d="M.46199037 .17704773H.43399049C.43199159 .16404724 .42399598 .10501099 .41099549 .08900452 .40499879 .07998657 .33599855 .07998657 .31599427 .07998657H.13798523L.23699951 .17404175C.40098573 .3161316 .46199037 .36915589 .46199037 .4711914 .46199037 .5860901 .36698915 .6660156 .24398804 .6660156 .1289978 .6660156 .050994874 .575119 .050994874 .4841919 .050994874 .43418885 .09399414 .42919923 .102996829 .42919923 .125 .42919923 .15499878 .44519044 .15499878 .48120118 .15499878 .51119998 .13398743 .5332031 .102996829 .5332031 .09799194 .5332031 .09498596 .5332031 .09098816 .53219607 .114990238 .6030731 .1789856 .63500979 .23298645 .63500979 .33499146 .63500979 .36999513 .5401764 .36999513 .4711914 .36999513 .36915589 .29299928 .28611756 .24499512 .23408509L.06199646 .035995485C.050994874 .024993897 .050994874 .022994996 .050994874 0H.43399049L.46199037 .17704773Z"/>
<path id="font_1_16" d="M.46998597 .17008972C.46998597 .25709535 .40098573 .33110047 .30499269 .35209657 .397995 .38710023 .44198609 .46009828 .44198609 .5290985 .44198609 .60606387 .35699464 .6660156 .25299073 .6660156 .14898682 .6660156 .070999149 .60705569 .070999149 .5310974 .070999149 .49809266 .09298706 .47909547 .12199402 .47909547 .15098572 .47909547 .17199707 .50009158 .17199707 .5290985 .17199707 .5640869 .147995 .57910159 .11399841 .57910159 .13999939 .6210327 .20098877 .64100649 .25 .64100649 .33299256 .64100649 .34899903 .5750885 .34899903 .52809146 .34899903 .49809266 .34298707 .45005799 .31799317 .41201783 .2869873 .36695863 .2519989 .36495973 .22299195 .36296083 .19799805 .36094667 .19599915 .36094667 .18798828 .36094667 .1789856 .35995484 .17098999 .35894776 .17098999 .34794618 .17098999 .33496095 .1789856 .33496095 .19599915 .33496095H.24299622C.32998658 .33496095 .36799623 .2646637 .36799623 .16937256 .36799623 .04145813 .2999878 .0055389406 .24899292 .0055389406 .22999573 .0055389406 .1329956 .010528564 .08799744 .0843811 .12399292 .07939148 .1519928 .10437012 .1519928 .13838196 .1519928 .17137146 .1269989 .19238281 .09799194 .19238281 .07299805 .19238281 .042999269 .17736817 .042999269 .13537598 .042999269 .046447755 .13598633-.022460938 .2519989-.022460938 .3769989-.022460938 .46998597 .06741333 .46998597 .16937256V.17008972Z"/>
<path id="font_1_19" d="M.46998597 .20277405C.46998597 .32977296 .37799073 .42578126 .2649994 .42578126 .20498657 .42578126 .1619873 .3907776 .13398743 .33078004 .13398743 .43276979 .14498902 .4897766 .17199707 .54177859 .19198609 .58277896 .24099732 .64100649 .31498719 .64100649 .33499146 .64100649 .3809967 .63697817 .4039917 .6007843 .36698915 .6007843 .35099793 .5817871 .35099793 .55477908 .35099793 .5287781 .36898805 .50878909 .39698792 .50878909 .4249878 .50878909 .44400025 .5267792 .44400025 .55677798 .44400025 .61299136 .4039917 .6660156 .31298829 .6660156 .18399048 .6660156 .042999269 .5389252 .042999269 .31576539 .042999269 .044555665 .16499329-.022460938 .25898744-.022460938 .36999513-.022460938 .46998597 .07052612 .46998597 .2025299V.20277405M.3789978 .20353699C.3789978 .15553284 .3789978 .106536868 .3600006 .0695343 .32899476 .012527466 .2849884 .0055389406 .2579956 .0055389406 .20098877 .0055389406 .16799927 .05253601 .1559906 .08152771 .13699341 .12652588 .13598633 .20953369 .13598633 .2255249 .13598633 .2927704 .16699219 .4007721 .2630005 .4007721 .2789917 .4007721 .32798768 .4007721 .3600006 .33877564 .3789978 .300766 .3789978 .25177003 .3789978 .20376587V.20353699Z"/>
<path id="font_2_2" d="M.47299195 .31976319C.47299195 .38682557 .46998597 .47288514 .43499757 .5479431 .3909912 .64201357 .31498719 .6660156 .25698854 .6660156 .19699097 .6660156 .12098694 .64201357 .07699585 .5459442 .04499817 .47688294 .039993287 .39582826 .039993287 .31976319 .039993287 .25471498 .041992189 .15765381 .084991458 .07858276 .13198853-.0064697267 .20999146-.022460938 .2559967-.022460938 .32099916-.022460938 .394989 .0055389406 .43699647 .097595218 .46699525 .1646576 .47299195 .23971558 .47299195 .31976319M.3869934 .33177186C.3869934 .2697296 .3869934 .18566895 .3769989 .12661743 .35598756 .012542725 .28199769 .002532959 .25698854 .002532959 .22698975 .002532959 .15499878 .016540528 .13598633 .12962342 .12599182 .18867493 .12599182 .2747345 .12599182 .33177186 .12599182 .39982606 .12599182 .47888185 .13798523 .53393557 .1579895 .6230011 .22200012 .64100649 .2559967 .64100649 .2939911 .64100649 .35699464 .62098696 .37599183 .5279236 .3869934 .47288514 .3869934 .39482118 .3869934 .33177186Z"/>
<path id="font_2_6" d="M.48399354 .16503906V.19602967H.38198854V.649765C.38198854 .669754 .38198854 .6767578 .36299134 .6767578 .35099793 .6767578 .34999085 .67575076 .34098817 .6617584L.0289917 .19602967V.16503906H.3019867V.07901001C.3019867 .041992189 .29899598 .0309906 .22399903 .0309906H.20199585V0C.2649994 .0029907227 .33499146 .0029907227 .34199525 .0029907227 .34700013 .0029907227 .4189911 .0029907227 .48199464 0V.0309906H.45999146C.3849945 .0309906 .38198854 .041992189 .38198854 .07901001V.16503906H.48399354M.30799867 .19602967H.06098938L.30799867 .56581118V.19602967Z"/>
<path id="font_2_10" d="M.46998597 .16764832C.46998597 .26472474 .3959961 .3127594 .37098695 .32876588 .3600006 .33677674 .33099366 .35479737 .31900025 .36180116 .36898805 .38581849 .44198609 .43585206 .44198609 .51690676 .44198609 .6109772 .34799195 .6660156 .2579956 .6660156 .15299988 .6660156 .070999149 .5909729 .070999149 .49890138 .070999149 .46087647 .084991458 .42485047 .10899353 .39582826 .12599182 .3768158 .13198853 .37280274 .18998719 .3357849 .101989749 .29374696 .042999269 .23269654 .042999269 .15063477 .042999269 .044555665 .147995-.022460938 .2559967-.022460938 .37199403-.022460938 .46998597 .059570314 .46998597 .16764832M.3939972 .51690676C.3939972 .44685365 .33399964 .40083314 .2939911 .37780763L.17199707 .45387269C.14199829 .47288514 .11898804 .4998932 .11898804 .53692629 .11898804 .6019745 .18899536 .64100649 .25498963 .64100649 .33198548 .64100649 .3939972 .58695986 .3939972 .51690676M.41600038 .1326294C.41600038 .05357361 .33599855 .0055389406 .25698854 .0055389406 .16999817 .0055389406 .09700012 .06758118 .09700012 .15063477 .09700012 .22268677 .14698792 .28274537 .21699524 .31877137L.34298707 .2407074C.3659973 .22569275 .41600038 .19366455 .41600038 .1326294Z"/>
<clipPath id="clip_3">
<path transform="matrix(1,0,0,-1,82.307437,118.00963)" d="M0 0H344.54887V113.90446H0Z"/>
</clipPath>
<path id="font_1_12" d="M.19599915 .053985597C.19599915 .08299255 .17199707 .10798645 .14199829 .10798645 .11199951 .10798645 .08799744 .08299255 .08799744 .053985597 .08799744 .023986817 .11199951 0 .14199829 0 .17199707 0 .19599915 .023986817 .19599915 .053985597Z"/>
<path id="font_1_18" d="M.46199037 .19992066C.46199037 .3209076 .37599183 .41992188 .2669983 .41992188 .21899414 .41992188 .16999817 .4039154 .1349945 .36791993V.5647888C.16499329 .55578616 .19599915 .55078127 .22698975 .55078127 .34999085 .55078127 .42199708 .63983157 .42199708 .6529236 .42199708 .6619873 .41600038 .6660156 .41099549 .6660156 .41099549 .6660156 .40699769 .6660156 .397995 .6609802 .35099793 .6418457 .30499269 .63378909 .2630005 .63378909 .21998596 .63378909 .1749878 .6418457 .1289978 .6609802 .11898804 .6660156 .115997318 .6660156 .115997318 .6660156 .10398865 .6660156 .10398865 .6559448 .10398865 .63882449V.34490968C.10398865 .32699586 .10398865 .31599427 .117996219 .31599427 .12599182 .31562806 .1289978 .3196411 .1349945 .32867433 .16499329 .37083436 .21299744 .39491273 .2649994 .39491273 .37199403 .39491273 .37199403 .24035645 .37199403 .20422364 .37199403 .17321778 .37199403 .11122131 .34399415 .06636047 .31698609 .024475098 .2749939 .0055389406 .23599243 .0055389406 .1769867 .0055389406 .10998535 .042419435 .085998538 .11621094 .085998538 .116882327 .09298706 .11488342 .099990848 .11488342 .11999512 .11488342 .14898682 .12788391 .14898682 .1638794 .14898682 .19488526 .1269989 .21289063 .099990848 .21289063 .07899475 .21289063 .050994874 .20088196 .050994874 .16088867 .050994874 .069732669 .1269989-.022460938 .23799134-.022460938 .35899354-.02279663 .46199037 .07521057 .46199037 .19921875V.19992066Z"/>
<path id="font_1_23" d="M.19599915 .3766632C.19599915 .406662 .17199707 .43066407 .14199829 .43066407 .11199951 .43066407 .08799744 .406662 .08799744 .3766632 .08799744 .34765626 .11199951 .32266236 .14199829 .32266236 .17199707 .32266236 .19599915 .34765626 .19599915 .3766632M.19599915 .053985597C.19599915 .08299255 .17199707 .10798645 .14199829 .10798645 .11199951 .10798645 .08799744 .08299255 .08799744 .053985597 .08799744 .023986817 .11199951 0 .14199829 0 .17199707 0 .19599915 .023986817 .19599915 .053985597Z"/>
<path id="font_1_54" d="M.5469971 0V.0309906C.49598695 .03125 .47099305 .03125 .46998597 .0622406V.25431825C.46998597 .3373413 .46998597 .36636354 .44198609 .4013672 .4189911 .42938233 .3809967 .4423828 .33099366 .4423828 .23799134 .4423828 .19499207 .37335206 .18099976 .34535218H.17999268V.4423828L.034988405 .43066407V.3996582C.102996829 .3996582 .11199951 .39266969 .11199951 .34370423V.07695007C.11199951 .0309906 .100997928 .0309906 .034988405 .0309906V0C.08198547 .0019989014 .100997928 .0029907227 .14898682 .0029907227 .19699097 .0029907227 .20999146 .0019989014 .2630005 0V.0309906C.19699097 .0309906 .18598938 .0309906 .18598938 .07695007V.25878907C.18598938 .36532594 .26098634 .41737367 .32398988 .41737367 .3829956 .41737367 .3959961 .3683319 .3959961 .30825807V.077041629C.3959961 .0309906 .3849945 .0309906 .31900025 .0309906V0C.3659973 .0019989014 .3849945 .0029907227 .43299867 .0029907227 .48098756 .0029907227 .49398805 .0019989014 .5469971 0Z"/>
<path id="font_1_55" d="M.48399354 .21324158C.48399354 .34423829 .37998963 .4482422 .25698854 .4482422 .12998963 .4482422 .0289917 .3412323 .0289917 .21324158 .0289917 .08824158 .1329956-.0107421879 .2559967-.0107421879 .3829956-.0107421879 .48399354 .09024048 .48399354 .21324158M.397995 .22224427C.397995 .1852417 .397995 .12724304 .37298585 .08325195 .34498597 .037246705 .29899598 .01725769 .25698854 .01725769 .20698548 .01725769 .16499329 .042251588 .14199829 .08125305 .115997318 .12324524 .114990238 .17623902 .114990238 .22224427 .114990238 .25924684 .114990238 .3162384 .13999939 .35723878 .16999817 .40823365 .21998596 .42323304 .2559967 .42323304 .31298829 .42323304 .35398866 .39123536 .37399293 .35723878 .39698792 .31523133 .397995 .26423646 .397995 .22224427Z"/>
<path id="font_1_45" d="M.4269867 .11936951C.4269867 .12637329 .42199708 .13237 .41299439 .13237 .40299989 .13237 .3999939 .12536621 .39898683 .12136841 .36499024 .019256592 .27598573 .01725769 .26098634 .01725769 .21299744 .01725769 .17199707 .044281007 .14898682 .078323367 .115997318 .12736511 .114990238 .18743897 .114990238 .22949219H.3999939C.42199708 .22949219 .4269867 .22949219 .4269867 .25048829 .4269867 .35333253 .37098695 .4482422 .24299622 .4482422 .12298584 .4482422 .0289917 .3443451 .0289917 .22047425 .0289917 .08932495 .13398743-.0107421879 .2559967-.0107421879 .37799073-.0107421879 .4269867 .096343997 .4269867 .11936951M.35899354 .253479H.115997318C.125 .40725709 .21499634 .42323304 .24299622 .42323304 .2979889 .42323304 .35798646 .38130189 .35899354 .253479Z"/>
<path id="font_1_52" d="M.26098634 0V.0309906C.19499207 .0309906 .18399048 .0309906 .18399048 .07701111V.69433596L.035995485 .6826172V.6516113C.10398865 .6516113 .11299133 .64460757 .11299133 .5956421V.07696533C.11299133 .0309906 .101989749 .0309906 .035995485 .0309906V0C.08299255 .0019989014 .101989749 .0029907227 .147995 .0029907227 .19499207 .0029907227 .21199036 .0019989014 .26098634 0Z"/>
<path id="font_1_46" d="M.3659973 .6340637C.3659973 .67207339 .32798768 .7050781 .272995 .7050781 .19499207 .7046509 .11299133 .6456604 .11299133 .5456543V.43066407H.033996583V.3996582H.11299133V.07695007C.11299133 .0309906 .101989749 .0309906 .035995485 .0309906V0C.08898926 .0019989014 .101989749 .0029907227 .15299988 .0029907227L.27999879 0V.0309906H.2599945C.18699646 .0309906 .18399048 .04197693 .18399048 .078948978V.3996582H.2999878V.43066407H.18099976V.5436554C.18099976 .6350708 .22999573 .68006899 .272995 .68006899 .2829895 .68006899 .29299928 .67807009 .30299378 .67407229 .29299928 .67007449 .2769928 .6580658 .2769928 .6330719 .2769928 .6070709 .29599 .58906558 .32099916 .58906558 .34799195 .58906558 .3659973 .60806277 .3659973 .6340637Z"/>
<path id="font_1_60" d="M.34199525 .12408447V.18099976H.31399537V.1270752C.31399537 .05319214 .2829895 .01725769 .24699402 .01725769 .17999268 .01725769 .17999268 .1051178 .17999268 .12309265V.3996582H.32499696V.43066407H.17999268V.6142578H.1519928C.15098572 .5304413 .115997318 .42765809 .018997193 .4246521V.3996582H.10598755V.12408447C.10598755 .012252808 .18699646-.0107421879 .23999024-.0107421879 .30699159-.011001587 .34199525 .052993776 .34199525 .12399292V.12408447Z"/>
<path id="font_1_8" d="M.34098817-.23803711C.34098817-.23303223 .33799745-.23002625 .33198548-.22303772 .20298767-.105026248 .1639862 .07498169 .1639862 .24998474 .1639862 .40498353 .19400025 .59298709 .33499146 .72698977 .33898927 .73098757 .34098817 .7339783 .34098817 .73898318 .34098817 .74598696 .33599855 .75 .32899476 .75 .31698609 .75 .22698975 .6779785 .17298889 .568985 .125 .47297669 .100997928 .36997987 .100997928 .25097657 .100997928 .17897034 .10998535 .064971927 .16499329-.053024293 .22399903-.17602539 .31698609-.24902344 .32899476-.24902344 .33599855-.24902344 .34098817-.24502564 .34098817-.23803711Z"/>
<path id="font_1_10" d="M.20698548 .0019989014C.20698548 .070999149 .18099976 .10798645 .14199829 .10798645 .10699463 .10798645 .08799744 .08099365 .08799744 .053985597 .08799744 .026992798 .10699463 0 .14199829 0 .16699219 0 .18199158 .015991211 .18199158 .015991211 .18199158-.017044068 .18199158-.09919739 .10598755-.17132569 .101989749-.17633057 .101989749-.18135071 .101989749-.18135071 .101989749-.18635559 .10798645-.19335938 .114990238-.19335938 .12599182-.19335938 .20698548-.1162262 .20698548 .0019989014Z"/>
<path id="font_1_5" d="M.5399933 0V.0309906C.47399903 .0309906 .46299745 .0309906 .46299745 .07695007V.44265748L.33299256 .4336548C.31698609 .43266297 .31498719 .43165589 .31498719 .43165589 .31298829 .43066407 .31098939 .43066407 .29699708 .43066407H.1749878V.5406494C.1749878 .6446533 .2689972 .68006899 .32598878 .68006899 .34899903 .68006899 .3869934 .6739807 .4119873 .6496582 .37298585 .6456604 .36698915 .61465457 .36698915 .60266116 .36698915 .57266238 .3909912 .55566409 .4139862 .55566409 .44099427 .55566409 .46199037 .57466128 .46199037 .60266116 .46199037 .65979006 .40699769 .7050781 .32699586 .7050781 .22698975 .7050781 .10699463 .6506653 .10699463 .5436554V.43066407H.027999878V.3996582H.10699463V.07695007C.10699463 .0309906 .09599304 .0309906 .02999878 .0309906V0C.07699585 .0019989014 .09599304 .0029907227 .14199829 .0029907227 .18899536 .0029907227 .20599365 .0019989014 .25498963 0V.0309906C.18899536 .0309906 .17799378 .0309906 .17799378 .07695007V.3996582H.33898927C.38598634 .3996582 .3919983 .38667298 .3919983 .34570313V.07695007C.3919983 .0309906 .3809967 .0309906 .31498719 .0309906V0C.3619995 .0019989014 .3809967 .0029907227 .4269867 .0029907227 .47399903 .0029907227 .4909973 .0019989014 .5399933 0Z"/>
<path id="font_1_62" d="M.5209961 .3996582V.43066407C.4909973 .42765809 .44400025 .42765809 .44400025 .42765809 .41600038 .42765809 .3849945 .4286499 .35699464 .43066407V.3996582C.38598634 .3976593 .40299989 .38267518 .40299989 .35671998 .40299989 .34674073 .4019928 .34474183 .397995 .3337555L.2939911 .0821228 .17999268 .35472108C.1769867 .36071778 .1749878 .36669923 .1749878 .37368775 .1749878 .3996582 .21099854 .3996582 .22999573 .3996582V.43066407C.18699646 .4286499 .1639862 .42765809 .11999512 .42765809 .084991458 .42765809 .055999757 .42765809 .019989014 .43066407V.3996582C.066986087 .3996582 .085998538 .3996582 .100997928 .36271668L.24699402 .008224487C.25299073-.007751465 .26098634-.0107421879 .269989-.0107421879 .2789917-.0107421879 .2869873-.008758545 .2939911 .008224487L.42999269 .3357544C.45098878 .38667298 .48599244 .39865113 .5209961 .3996582Z"/>
<path id="font_1_59" d="M.36999513 .12831116C.36999513 .17330933 .34999085 .20030213 .32798768 .22329712 .2939911 .25628663 .2579956 .26327516 .18399048 .2772827 .1579895 .28227235 .084991458 .29527284 .084991458 .35224916 .084991458 .38424684 .10798645 .426239 .19898987 .426239 .30699159 .426239 .31399537 .34326173 .31599427 .31826783 .31698609 .3062744 .31698609 .3002777 .32998658 .3002777 .34399415 .3002777 .34399415 .30726625 .34399415 .32626344V.4222412C.34399415 .4392395 .34399415 .4482422 .33198548 .4482422 .32699586 .4482422 .32499696 .4482422 .31199647 .43623353 .30999757 .43423463 .30099488 .42523194 .29499818 .4202423 .2639923 .44223023 .23298645 .4482422 .19898987 .4482422 .066986087 .4482422 .033996583 .37524415 .033996583 .32426454 .033996583 .29226686 .04798889 .26628114 .070999149 .24429322 .10499573 .21330261 .14299011 .20629883 .19400025 .19729615 .24499512 .18730164 .2619934 .18431092 .28399659 .16731262 .2939911 .15931702 .31900025 .14031983 .31900025 .10229492 .31900025 .014251709 .21798706 .014251709 .20399475 .014251709 .101989749 .014251709 .07598877 .0993042 .06399536 .15332031 .06098938 .16331482 .05999756 .16931153 .04798889 .16931153 .033996583 .16931153 .033996583 .16131592 .033996583 .14331055V.01524353C.033996583-.0017547608 .033996583-.0107421879 .04598999-.0107421879 .051986696-.0107421879 .052993776-.009750366 .070999149 .009246826 .07499695 .01524353 .085998538 .028259278 .09098816 .03326416 .1329956-.007751465 .1789856-.0107421879 .20399475-.0107421879 .32699586-.0107421879 .36999513 .061279298 .36999513 .12831116Z"/>
<path id="font_1_49" d="M.25299073 0V.0309906C.18798828 .0309906 .18399048 .035995485 .18399048 .075042728V.4423828L.039993287 .43066407V.3996582C.10398865 .3996582 .11299133 .3936615 .11299133 .3447113V.07695007C.11299133 .0309906 .101989749 .0309906 .035995485 .0309906V0C.08099365 .0019989014 .101989749 .0029907227 .1459961 .0029907227 .1619873 .0029907227 .20399475 .0029907227 .25299073 0M.19699097 .6028137C.19699097 .63282778 .17298889 .6568146 .14299011 .6568146 .11299133 .6568146 .08898926 .63282778 .08898926 .6028137 .08898926 .57281497 .11299133 .5488281 .14299011 .5488281 .17298889 .5488281 .19699097 .57281497 .19699097 .6028137Z"/>
<path id="font_1_66" d="M.41299439 .18984986H.3849945C.375 .078948978 .3619995 .027999878 .23699951 .027999878H.11999512L.40098573 .39866639C.4099884 .4096527 .4099884 .4116516 .4099884 .4156494 .4099884 .43066407 .3999939 .43066407 .3829956 .43066407H.053985597L.042999269 .26678468H.070999149C.07699585 .36868287 .09498596 .4056549 .20799256 .4056549H.31999208L.037994386 .033981325C.0289917 .022994996 .0289917 .020996094 .0289917 .015991211 .0289917 0 .037994386 0 .055999757 0H.3959961L.41299439 .18984986Z"/>
<path id="font_1_9" d="M.2979889 .25097657C.2979889 .3329773 .28599549 .4429779 .23399353 .5539856 .1749878 .6769867 .08198547 .75 .069992069 .75 .05999756 .75 .057998659 .74198916 .057998659 .73898318 .057998659 .7339783 .05999756 .73098757 .066986087 .72398379 .125 .6719818 .23498535 .5359802 .23498535 .25097657 .23498535 .10797119 .20899964-.091033939 .06399536-.22602844 .06199646-.22903443 .057998659-.23303223 .057998659-.23803711 .057998659-.24102783 .05999756-.24902344 .069992069-.24902344 .08198547-.24902344 .17199707-.17703247 .22599793-.06802368 .27398683 .02796936 .2979889 .13098145 .2979889 .25097657Z"/>
<path id="font_1_41" d="M.49699403 .089141849V.14515686H.46899415V.090148929C.46899415 .07914734 .46899415 .029129029 .43299867 .029129029 .39698792 .029129029 .39698792 .07714844 .39698792 .09315491V.26818849C.39698792 .32521058 .39698792 .3592224 .35198976 .40022279 .31498719 .43322755 .2669983 .4482422 .21699524 .4482422 .1329956 .4482422 .06298828 .40623475 .06298828 .34220887 .06298828 .311203 .083999637 .2942047 .10998535 .2942047 .13699341 .2942047 .1559906 .31420899 .1559906 .34020997 .1559906 .3832245 .11099243 .38822938 .11099243 .38822938 .13798523 .41423036 .18598938 .42323304 .21499634 .42323304 .2659912 .42323304 .32299806 .3852234 .32299806 .29719544V.26419068C.2689972 .26219178 .19400025 .2571869 .1269989 .22518921 .054992677 .19017029 .032989503 .13816834 .032989503 .09814453 .032989503 .01625061 .12998963-.0107421879 .19699097-.0107421879 .27999879-.0107421879 .31799317 .04425049 .33198548 .072250369 .33699037 .030136109 .3659973-.005859375 .40899659-.005859375 .43399049-.005859375 .49699403 .009140015 .49699403 .08912659V.089141849M.32299806 .14112854C.32299806 .04425049 .24798584 .014251709 .20399475 .014251709 .15699768 .014251709 .11299133 .04824829 .11299133 .098236087 .11299133 .16423035 .16999817 .23422241 .32299806 .24023438V.14112854Z"/>
<path id="font_1_42" d="M.5359955 .21636963C.5359955 .34144593 .43699647 .4423828 .31698609 .4423828 .24899292 .4423828 .20199585 .4073944 .17799378 .38046266V.69433596L.02999878 .68333438V.6523285C.09799194 .6523285 .10699463 .6453247 .10699463 .596344V.00024414063H.1349945L.17199707 .061279298C.20298767 .01725769 .25299073-.0107421879 .30699159-.0107421879 .42599488-.0107421879 .5359955 .08529663 .5359955 .21636963M.44999696 .21737671C.44999696 .17034912 .44400025 .11730957 .41799928 .07728577 .3959961 .045272829 .35499574 .014251709 .3019867 .014251709 .25698854 .014251709 .21899414 .038269044 .19499207 .075286868 .18099976 .09629822 .18099976 .0973053 .18099976 .11631775V.31944276C.18099976 .3384552 .18099976 .33944703 .19198609 .35546876 .22599793 .40141297 .2749939 .41737367 .31298829 .41737367 .35598756 .41737367 .3959961 .39343263 .42199708 .3514557 .44799806 .3084259 .44999696 .24938965 .44999696 .21737671Z"/>
<path id="font_1_61" d="M.5469971 .00024414063V.03125C.47898866 .03125 .46998597 .038253786 .46998597 .087265018V.4423828L.31900025 .43138124V.40037538C.3869934 .40037538 .3959961 .39337159 .3959961 .34436036V.16729737C.3959961 .07826233 .34599305 .014251709 .27398683 .014251709 .19099427 .014251709 .18598938 .057266237 .18598938 .11128235V.4423828L.034988405 .43138124V.40037538C.11199951 .40037538 .11199951 .39736939 .11199951 .3083496V.15829468C.11199951 .09327698 .11199951 .051254274 .1579895 .01625061 .18699646-.003753662 .22799683-.0107421879 .2679901-.0107421879 .31999208-.0107421879 .36898805 .012252808 .397995 .072265628H.39898683V-.0107421879L.5469971 .00024414063Z"/>
<path id="font_1_44" d="M.5399933 0V.0309906C.47200013 .0309906 .46299745 .037994386 .46299745 .087020877V.69433596L.31498719 .6826172V.6516113C.3829956 .6516113 .3919983 .64463809 .3919983 .59580996V.38339234C.3869934 .38938905 .34199525 .4423828 .2639923 .4423828 .14099121 .4423828 .033996583 .3443756 .033996583 .21525574 .033996583 .09013367 .13398743-.0107421879 .25299073-.0107421879 .32598878-.0107421879 .37098695 .03224182 .3889923 .053115846V-.0107421879L.5399933 0M.3889923 .12011719C.3889923 .10211182 .3889923 .099121097 .37399293 .078125 .34298707 .033218385 .29699708 .014251709 .25698854 .014251709 .21398926 .014251709 .17399597 .038208009 .147995 .0801239 .12199402 .12312317 .11999512 .18218994 .11999512 .21421814 .11999512 .26127626 .12599182 .3143463 .1519928 .35438539 .17399597 .38638307 .21499634 .41737367 .2679901 .41737367 .30999757 .41737367 .34999085 .39637757 .3769989 .35839845 .3889923 .3423767 .3889923 .34136964 .3889923 .32235719V.12011719Z"/>
<path id="font_1_47" d="M.49899293 .40338136C.49899293 .42237855 .4850006 .45336915 .44499208 .45336915 .41600038 .45336915 .37098695 .4423828 .33599855 .40637208 .30899049 .42837525 .269989 .4423828 .22799683 .4423828 .1329956 .4423828 .06098938 .3743744 .06098938 .29537965 .06098938 .2443695 .09098816 .20837403 .10699463 .19337464 .10499573 .19137573 .07699585 .15637207 .07699585 .11038208 .07699585 .07637024 .09298706 .040374757 .11999512 .022369385 .068984989 .005874634 .0289917-.03111267 .0289917-.07809448 .0289917-.14907837 .12799073-.20605469 .2559967-.20605469 .3789978-.20605469 .48399354-.15307617 .48399354-.07609558 .48399354-.035110475 .46499635 .008880615 .42799378 .03288269 .37199403 .067871097 .31399537 .067871097 .21899414 .067871097 .19898987 .067871097 .16699219 .067871097 .15899658 .069885257 .12998963 .075927738 .11099243 .1031189 .11099243 .13534546 .11099243 .15142823 .115997318 .16642761 .125 .1794281 .1499939 .16343689 .18099976 .1484375 .22698975 .1484375 .32199098 .1484375 .3939972 .21643067 .3939972 .29542542 .3939972 .34443666 .3659973 .37843324 .35299684 .39242555 .3929901 .42843629 .43998719 .42843629 .45199586 .42843629 .44699098 .4254303 .43899537 .42042542 .43899537 .4024353 .43899537 .39143373 .44599916 .37243653 .46899415 .37243653 .48298646 .37243653 .49899293 .38243104 .49899293 .40342713V.40338136M.31698609 .29542542C.31698609 .27243043 .31698609 .1754303 .22698975 .1754303 .13798523 .17520142 .13798523 .27326966 .13798523 .2952881 .13798523 .3223114 .13999939 .35632325 .15699768 .38034059 .17199707 .4003601 .19898987 .41537477 .22698975 .41537477 .31698609 .41537477 .31698609 .31829835 .31698609 .2952881V.29542542M.42799378-.07698059C.42799378-.1340332 .35099793-.17906189 .25698854-.17906189 .15899658-.17912293 .084991458-.13212586 .084991458-.07711792 .084991458-.06112671 .09498596 .0048828127 .18099976 .0048828127H.272995C.30499269 .0048828127 .42799378 .0038757325 .42799378-.07711792V-.07698059Z"/>
<path id="font_1_48" d="M.5469971 0V.0309906C.49598695 .03125 .47099305 .03125 .46998597 .0622406V.25431825C.46998597 .3373413 .46998597 .36636354 .44198609 .4013672 .4189911 .42938233 .3809967 .4423828 .33099366 .4423828 .2639923 .4423828 .21499634 .40737916 .18399048 .35134889H.18299866V.69433596L.034988405 .6826172V.6516113C.102996829 .6516113 .11199951 .64463809 .11199951 .59580996V.077041629C.11199951 .0309906 .100997928 .0309906 .034988405 .0309906V0C.08198547 .0019989014 .100997928 .0029907227 .14898682 .0029907227 .19699097 .0029907227 .20999146 .0019989014 .2630005 0V.0309906C.19699097 .0309906 .18598938 .0309906 .18598938 .077041629V.2592163C.18598938 .36532594 .26098634 .41737367 .32398988 .41737367 .3829956 .41737367 .3959961 .3683319 .3959961 .30825807V.077041629C.3959961 .0309906 .3849945 .0309906 .31900025 .0309906V0C.3659973 .0019989014 .3849945 .0029907227 .43299867 .0029907227 .48098756 .0029907227 .49398805 .0019989014 .5469971 0Z"/>
<path id="font_1_58" d="M.37298585 .3798828C.37298585 .41236878 .34298707 .4423828 .2979889 .4423828 .23799134 .4423828 .19599915 .40037538 .17298889 .33787538H.17199707V.4423828L.02999878 .43066407V.3996582C.09799194 .3996582 .10699463 .3927307 .10699463 .34387208V.07698059C.10699463 .0309906 .09599304 .0309906 .02999878 .0309906V0C.08299255 .0019989014 .09599304 .0029907227 .14698792 .0029907227L.27398683 0V.0309906H.2539978C.18099976 .0309906 .17799378 .041992189 .17799378 .07897949V.22891236C.17799378 .26989747 .18899536 .4166565 .30299378 .4166565V.4156494C.30099488 .4146576 .2849884 .40264894 .2849884 .37887574 .2849884 .35186769 .30599977 .33486939 .32899476 .33486939 .34999085 .33486939 .37298585 .34986878 .37298585 .3798828Z"/>
</defs>
<path transform="matrix(1,0,0,-1,82.307437,118.00963)" stroke-width=".3985" stroke-linecap="butt" stroke-miterlimit="10" stroke-linejoin="miter" fill="none" stroke="#e5e6e5" d="M24.61063 0V113.90446M123.05316 0V113.90446M172.27443 0V113.90446M196.88507 0V113.90446M209.19039 0V113.90446M221.49571 0V113.90446M246.10634 0V113.90446M319.93827 0V113.90446"/>
<path transform="matrix(1,0,0,-1,82.307437,118.00963)" stroke-width=".3985" stroke-linecap="butt" stroke-miterlimit="10" stroke-linejoin="miter" fill="none" stroke="#e5e6e5" d="M0 7.2705H344.54887M0 55.74048H344.54887M0 104.21046H344.54887"/>
<path transform="matrix(1,0,0,-1,82.307437,118.00963)" stroke-width=".19925" stroke-linecap="butt" stroke-miterlimit="10" stroke-linejoin="miter" fill="none" stroke="#7f807f" d="M24.61063 0V4.25174M123.05316 0V4.25174M172.27443 0V4.25174M196.88507 0V4.25174M209.19039 0V4.25174M221.49571 0V4.25174M246.10634 0V4.25174M319.93827 0V4.25174M24.61063 113.90446V109.6527M123.05316 113.90446V109.6527M172.27443 113.90446V109.6527M196.88507 113.90446V109.6527M209.19039 113.90446V109.6527M221.49571 113.90446V109.6527M246.10634 113.90446V109.6527M319.93827 113.90446V109.6527"/>
<path transform="matrix(1,0,0,-1,82.307437,118.00963)" stroke-width=".19925" stroke-linecap="butt" stroke-miterlimit="10" stroke-linejoin="miter" fill="none" stroke="#7f807f" d="M0 7.2705H4.25262M0 55.74048H4.25262M0 104.21046H4.25262M344.54887 7.2705H340.29624M344.54887 55.74048H340.29624M344.54887 104.21046H340.29624"/>
<path transform="matrix(1,0,0,-1,82.307437,118.00963)" stroke-width=".3985" stroke-linecap="butt" stroke-miterlimit="10" stroke-linejoin="miter" fill="none" stroke="#000000" d="M0 0V113.90446H344.54887V0H0Z"/>
<use data-text="4" xlink:href="#font_1_17" transform="matrix(8.966376,0,0,-8.966376,104.61417,127.518169)"/>
<use data-text="8" xlink:href="#font_1_21" transform="matrix(8.966376,0,0,-8.966376,203.05672,127.518169)"/>
<use data-text="1" xlink:href="#font_1_14" transform="matrix(8.966376,0,0,-8.966376,249.97409,127.518169)"/>
<use data-text="0" xlink:href="#font_1_13" transform="matrix(8.966376,0,0,-8.966376,254.58281,127.518169)"/>
<use data-text="1" xlink:href="#font_1_14" transform="matrix(8.966376,0,0,-8.966376,274.58473,127.518169)"/>
<use data-text="1" xlink:href="#font_1_14" transform="matrix(8.966376,0,0,-8.966376,279.19346,127.518169)"/>
<use data-text="1" xlink:href="#font_1_14" transform="matrix(8.966376,0,0,-8.966376,299.19535,127.518169)"/>
<use data-text="2" xlink:href="#font_1_15" transform="matrix(8.966376,0,0,-8.966376,303.80409,127.518169)"/>
<use data-text="1" xlink:href="#font_1_14" transform="matrix(8.966376,0,0,-8.966376,323.806,127.518169)"/>
<use data-text="3" xlink:href="#font_1_16" transform="matrix(8.966376,0,0,-8.966376,328.41474,127.518169)"/>
<use data-text="1" xlink:href="#font_1_14" transform="matrix(8.966376,0,0,-8.966376,397.6379,127.518169)"/>
<use data-text="6" xlink:href="#font_1_19" transform="matrix(8.966376,0,0,-8.966376,402.24665,127.518169)"/>
<use data-text="0" xlink:href="#font_2_2" transform="matrix(8.966376,0,0,-8.966376,73.864398,113.575778)"/>
<use data-text="4" xlink:href="#font_2_6" transform="matrix(8.966376,0,0,-8.966376,73.864398,65.10579)"/>
<use data-text="8" xlink:href="#font_2_10" transform="matrix(8.966376,0,0,-8.966376,73.864398,16.635796)"/>
<g clip-path="url(#clip_3)">
<path transform="matrix(1,0,0,-1,82.307437,118.00963)" stroke-width="1.19553" stroke-linecap="butt" stroke-miterlimit="10" stroke-linejoin="miter" fill="none" stroke="#176b70" d="M24.61063 7.2705H123.05316 172.27443 196.88507 209.19039 221.49571V104.21046H246.10634 319.93827 344.54887"/>
<path transform="matrix(1,0,0,-1,82.307437,118.00963)" stroke-width=".3985" stroke-linecap="butt" stroke-dasharray="2.98883,2.98883" stroke-miterlimit="10" stroke-linejoin="miter" fill="none" stroke="#17324d" d="M221.49571 0V113.90446"/>
<use data-text="1" xlink:href="#font_1_14" transform="matrix(8.966376,0,0,-8.966376,238.1601,30.448809)" fill="#17324d"/>
<use data-text="1" xlink:href="#font_1_14" transform="matrix(8.966376,0,0,-8.966376,242.76883,30.448809)" fill="#17324d"/>
<use data-text="." xlink:href="#font_1_12" transform="matrix(8.966376,0,0,-8.966376,247.37754,30.448809)" fill="#17324d"/>
<use data-text="5" xlink:href="#font_1_18" transform="matrix(8.966376,0,0,-8.966376,249.94193,30.448809)" fill="#17324d"/>
<use data-text=":" xlink:href="#font_1_23" transform="matrix(8.966376,0,0,-8.966376,254.55065,30.448809)" fill="#17324d"/>
<use data-text="n" xlink:href="#font_1_54" transform="matrix(8.966376,0,0,-8.966376,261.2037,30.448809)" fill="#17324d"/>
<use data-text="o" xlink:href="#font_1_55" transform="matrix(8.966376,0,0,-8.966376,266.3235,30.448809)" fill="#17324d"/>
<use data-text="n" xlink:href="#font_1_54" transform="matrix(8.966376,0,0,-8.966376,270.93223,30.448809)" fill="#17324d"/>
<use data-text="e" xlink:href="#font_1_45" transform="matrix(8.966376,0,0,-8.966376,276.05204,30.448809)" fill="#17324d"/>
<use data-text="l" xlink:href="#font_1_52" transform="matrix(8.966376,0,0,-8.966376,283.22514,30.448809)" fill="#17324d"/>
<use data-text="e" xlink:href="#font_1_45" transform="matrix(8.966376,0,0,-8.966376,285.78953,30.448809)" fill="#17324d"/>
<use data-text="f" xlink:href="#font_1_46" transform="matrix(8.966376,0,0,-8.966376,289.88716,30.448809)" fill="#17324d"/>
<use data-text="t" xlink:href="#font_1_60" transform="matrix(8.966376,0,0,-8.966376,292.70259,30.448809)" fill="#17324d"/>
<use data-text="(" xlink:href="#font_1_8" transform="matrix(8.966376,0,0,-8.966376,225.77088,42.284448)" fill="#17324d"/>
<use data-text="0" xlink:href="#font_1_13" transform="matrix(8.966376,0,0,-8.966376,229.35744,42.284448)" fill="#17324d"/>
<use data-text="o" xlink:href="#font_1_55" transform="matrix(8.966376,0,0,-8.966376,237.03266,42.284448)" fill="#17324d"/>
<use data-text="f" xlink:href="#font_1_46" transform="matrix(8.966376,0,0,-8.966376,241.64138,42.284448)" fill="#17324d"/>
<use data-text="8" xlink:href="#font_1_21" transform="matrix(8.966376,0,0,-8.966376,247.53229,42.284448)" fill="#17324d"/>
<use data-text="," xlink:href="#font_1_10" transform="matrix(8.966376,0,0,-8.966376,252.14099,42.284448)" fill="#17324d"/>
<use data-text="&#xfb01;" xlink:href="#font_1_5" transform="matrix(8.966376,0,0,-8.966376,257.77189,42.284448)" fill="#17324d"/>
<use data-text="v" xlink:href="#font_1_62" transform="matrix(8.966376,0,0,-8.966376,262.8917,42.284448)" fill="#17324d"/>
<use data-text="e" xlink:href="#font_1_45" transform="matrix(8.966376,0,0,-8.966376,267.50938,42.284448)" fill="#17324d"/>
<use data-text="s" xlink:href="#font_1_59" transform="matrix(8.966376,0,0,-8.966376,274.66456,42.284448)" fill="#17324d"/>
<use data-text="i" xlink:href="#font_1_49" transform="matrix(8.966376,0,0,-8.966376,278.29594,42.284448)" fill="#17324d"/>
<use data-text="z" xlink:href="#font_1_66" transform="matrix(8.966376,0,0,-8.966376,280.8603,42.284448)" fill="#17324d"/>
<use data-text="e" xlink:href="#font_1_45" transform="matrix(8.966376,0,0,-8.966376,284.95796,42.284448)" fill="#17324d"/>
<use data-text="s" xlink:href="#font_1_59" transform="matrix(8.966376,0,0,-8.966376,289.05558,42.284448)" fill="#17324d"/>
<use data-text=")" xlink:href="#font_1_9" transform="matrix(8.966376,0,0,-8.966376,292.68696,42.284448)" fill="#17324d"/>
<use data-text="1" xlink:href="#font_1_14" transform="matrix(8.966376,0,0,-8.966376,312.56053,75.283557)" fill="#17324d"/>
<use data-text="2" xlink:href="#font_1_15" transform="matrix(8.966376,0,0,-8.966376,317.16926,75.283557)" fill="#17324d"/>
<use data-text=":" xlink:href="#font_1_23" transform="matrix(8.966376,0,0,-8.966376,321.77796,75.283557)" fill="#17324d"/>
<use data-text="a" xlink:href="#font_1_41" transform="matrix(8.966376,0,0,-8.966376,328.43104,75.283557)" fill="#17324d"/>
<use data-text="l" xlink:href="#font_1_52" transform="matrix(8.966376,0,0,-8.966376,333.03974,75.283557)" fill="#17324d"/>
<use data-text="l" xlink:href="#font_1_52" transform="matrix(8.966376,0,0,-8.966376,335.60414,75.283557)" fill="#17324d"/>
<use data-text="l" xlink:href="#font_1_52" transform="matrix(8.966376,0,0,-8.966376,341.24397,75.283557)" fill="#17324d"/>
<use data-text="e" xlink:href="#font_1_45" transform="matrix(8.966376,0,0,-8.966376,343.80836,75.283557)" fill="#17324d"/>
<use data-text="f" xlink:href="#font_1_46" transform="matrix(8.966376,0,0,-8.966376,347.906,75.283557)" fill="#17324d"/>
<use data-text="t" xlink:href="#font_1_60" transform="matrix(8.966376,0,0,-8.966376,350.72145,75.283557)" fill="#17324d"/>
<use data-text="(" xlink:href="#font_1_8" transform="matrix(8.966376,0,0,-8.966376,312.56053,87.119197)" fill="#17324d"/>
<use data-text="8" xlink:href="#font_1_21" transform="matrix(8.966376,0,0,-8.966376,316.1471,87.119197)" fill="#17324d"/>
<use data-text="o" xlink:href="#font_1_55" transform="matrix(8.966376,0,0,-8.966376,323.8223,87.119197)" fill="#17324d"/>
<use data-text="f" xlink:href="#font_1_46" transform="matrix(8.966376,0,0,-8.966376,328.43104,87.119197)" fill="#17324d"/>
<use data-text="8" xlink:href="#font_1_21" transform="matrix(8.966376,0,0,-8.966376,334.32194,87.119197)" fill="#17324d"/>
<use data-text="," xlink:href="#font_1_10" transform="matrix(8.966376,0,0,-8.966376,338.93064,87.119197)" fill="#17324d"/>
<use data-text="&#xfb01;" xlink:href="#font_1_5" transform="matrix(8.966376,0,0,-8.966376,344.56153,87.119197)" fill="#17324d"/>
<use data-text="v" xlink:href="#font_1_62" transform="matrix(8.966376,0,0,-8.966376,349.68135,87.119197)" fill="#17324d"/>
<use data-text="e" xlink:href="#font_1_45" transform="matrix(8.966376,0,0,-8.966376,354.299,87.119197)" fill="#17324d"/>
<use data-text="s" xlink:href="#font_1_59" transform="matrix(8.966376,0,0,-8.966376,361.45417,87.119197)" fill="#17324d"/>
<use data-text="i" xlink:href="#font_1_49" transform="matrix(8.966376,0,0,-8.966376,365.08558,87.119197)" fill="#17324d"/>
<use data-text="z" xlink:href="#font_1_66" transform="matrix(8.966376,0,0,-8.966376,367.64997,87.119197)" fill="#17324d"/>
<use data-text="e" xlink:href="#font_1_45" transform="matrix(8.966376,0,0,-8.966376,371.7476,87.119197)" fill="#17324d"/>
<use data-text="s" xlink:href="#font_1_59" transform="matrix(8.966376,0,0,-8.966376,375.8452,87.119197)" fill="#17324d"/>
<use data-text=")" xlink:href="#font_1_9" transform="matrix(8.966376,0,0,-8.966376,379.4766,87.119197)" fill="#17324d"/>
</g>
<path transform="matrix(1,0,0,-1,82.307437,118.00963)" d="M26.60318 7.2705C26.60318 8.37096 25.7111 9.26305 24.61063 9.26305 23.51016 9.26305 22.61807 8.37096 22.61807 7.2705 22.61807 6.17001 23.51016 5.27794 24.61063 5.27794 25.7111 5.27794 26.60318 6.17001 26.60318 7.2705ZM24.61063 7.2705" fill="#176b70"/>
<path transform="matrix(1,0,0,-1,82.307437,118.00963)" stroke-width="1.19553" stroke-linecap="butt" stroke-miterlimit="10" stroke-linejoin="miter" fill="none" stroke="#176b70" d="M26.60318 7.2705C26.60318 8.37096 25.7111 9.26305 24.61063 9.26305 23.51016 9.26305 22.61807 8.37096 22.61807 7.2705 22.61807 6.17001 23.51016 5.27794 24.61063 5.27794 25.7111 5.27794 26.60318 6.17001 26.60318 7.2705ZM24.61063 7.2705"/>
<path transform="matrix(1,0,0,-1,82.307437,118.00963)" d="M125.04572 7.2705C125.04572 8.37096 124.15364 9.26305 123.05316 9.26305 121.9527 9.26305 121.06061 8.37096 121.06061 7.2705 121.06061 6.17001 121.9527 5.27794 123.05316 5.27794 124.15364 5.27794 125.04572 6.17001 125.04572 7.2705ZM123.05316 7.2705" fill="#176b70"/>
<path transform="matrix(1,0,0,-1,82.307437,118.00963)" stroke-width="1.19553" stroke-linecap="butt" stroke-miterlimit="10" stroke-linejoin="miter" fill="none" stroke="#176b70" d="M125.04572 7.2705C125.04572 8.37096 124.15364 9.26305 123.05316 9.26305 121.9527 9.26305 121.06061 8.37096 121.06061 7.2705 121.06061 6.17001 121.9527 5.27794 123.05316 5.27794 124.15364 5.27794 125.04572 6.17001 125.04572 7.2705ZM123.05316 7.2705"/>
<path transform="matrix(1,0,0,-1,82.307437,118.00963)" d="M174.26699 7.2705C174.26699 8.37096 173.37491 9.26305 172.27443 9.26305 171.17397 9.26305 170.28188 8.37096 170.28188 7.2705 170.28188 6.17001 171.17397 5.27794 172.27443 5.27794 173.37491 5.27794 174.26699 6.17001 174.26699 7.2705ZM172.27443 7.2705" fill="#176b70"/>
<path transform="matrix(1,0,0,-1,82.307437,118.00963)" stroke-width="1.19553" stroke-linecap="butt" stroke-miterlimit="10" stroke-linejoin="miter" fill="none" stroke="#176b70" d="M174.26699 7.2705C174.26699 8.37096 173.37491 9.26305 172.27443 9.26305 171.17397 9.26305 170.28188 8.37096 170.28188 7.2705 170.28188 6.17001 171.17397 5.27794 172.27443 5.27794 173.37491 5.27794 174.26699 6.17001 174.26699 7.2705ZM172.27443 7.2705"/>
<path transform="matrix(1,0,0,-1,82.307437,118.00963)" d="M198.87763 7.2705C198.87763 8.37096 197.98554 9.26305 196.88507 9.26305 195.7846 9.26305 194.89252 8.37096 194.89252 7.2705 194.89252 6.17001 195.7846 5.27794 196.88507 5.27794 197.98554 5.27794 198.87763 6.17001 198.87763 7.2705ZM196.88507 7.2705" fill="#176b70"/>
<path transform="matrix(1,0,0,-1,82.307437,118.00963)" stroke-width="1.19553" stroke-linecap="butt" stroke-miterlimit="10" stroke-linejoin="miter" fill="none" stroke="#176b70" d="M198.87763 7.2705C198.87763 8.37096 197.98554 9.26305 196.88507 9.26305 195.7846 9.26305 194.89252 8.37096 194.89252 7.2705 194.89252 6.17001 195.7846 5.27794 196.88507 5.27794 197.98554 5.27794 198.87763 6.17001 198.87763 7.2705ZM196.88507 7.2705"/>
<path transform="matrix(1,0,0,-1,82.307437,118.00963)" d="M211.18294 7.2705C211.18294 8.37096 210.29087 9.26305 209.19039 9.26305 208.08992 9.26305 207.19783 8.37096 207.19783 7.2705 207.19783 6.17001 208.08992 5.27794 209.19039 5.27794 210.29087 5.27794 211.18294 6.17001 211.18294 7.2705ZM209.19039 7.2705" fill="#176b70"/>
<path transform="matrix(1,0,0,-1,82.307437,118.00963)" stroke-width="1.19553" stroke-linecap="butt" stroke-miterlimit="10" stroke-linejoin="miter" fill="none" stroke="#176b70" d="M211.18294 7.2705C211.18294 8.37096 210.29087 9.26305 209.19039 9.26305 208.08992 9.26305 207.19783 8.37096 207.19783 7.2705 207.19783 6.17001 208.08992 5.27794 209.19039 5.27794 210.29087 5.27794 211.18294 6.17001 211.18294 7.2705ZM209.19039 7.2705"/>
<path transform="matrix(1,0,0,-1,82.307437,118.00963)" d="M223.48827 104.21046C223.48827 105.31094 222.59618 106.20302 221.49571 106.20302 220.39524 106.20302 219.50316 105.31094 219.50316 104.21046 219.50316 103.11 220.39524 102.21791 221.49571 102.21791 222.59618 102.21791 223.48827 103.11 223.48827 104.21046ZM221.49571 104.21046" fill="#176b70"/>
<path transform="matrix(1,0,0,-1,82.307437,118.00963)" stroke-width="1.19553" stroke-linecap="butt" stroke-miterlimit="10" stroke-linejoin="miter" fill="none" stroke="#176b70" d="M223.48827 104.21046C223.48827 105.31094 222.59618 106.20302 221.49571 106.20302 220.39524 106.20302 219.50316 105.31094 219.50316 104.21046 219.50316 103.11 220.39524 102.21791 221.49571 102.21791 222.59618 102.21791 223.48827 103.11 223.48827 104.21046ZM221.49571 104.21046"/>
<path transform="matrix(1,0,0,-1,82.307437,118.00963)" d="M248.09889 104.21046C248.09889 105.31094 247.20682 106.20302 246.10634 106.20302 245.00588 106.20302 244.11379 105.31094 244.11379 104.21046 244.11379 103.11 245.00588 102.21791 246.10634 102.21791 247.20682 102.21791 248.09889 103.11 248.09889 104.21046ZM246.10634 104.21046" fill="#176b70"/>
<path transform="matrix(1,0,0,-1,82.307437,118.00963)" stroke-width="1.19553" stroke-linecap="butt" stroke-miterlimit="10" stroke-linejoin="miter" fill="none" stroke="#176b70" d="M248.09889 104.21046C248.09889 105.31094 247.20682 106.20302 246.10634 106.20302 245.00588 106.20302 244.11379 105.31094 244.11379 104.21046 244.11379 103.11 245.00588 102.21791 246.10634 102.21791 247.20682 102.21791 248.09889 103.11 248.09889 104.21046ZM246.10634 104.21046"/>
<path transform="matrix(1,0,0,-1,82.307437,118.00963)" d="M321.9308 104.21046C321.9308 105.31094 321.0387 106.20302 319.93827 106.20302 318.83778 106.20302 317.9457 105.31094 317.9457 104.21046 317.9457 103.11 318.83778 102.21791 319.93827 102.21791 321.0387 102.21791 321.9308 103.11 321.9308 104.21046ZM319.93827 104.21046" fill="#176b70"/>
<path transform="matrix(1,0,0,-1,82.307437,118.00963)" stroke-width="1.19553" stroke-linecap="butt" stroke-miterlimit="10" stroke-linejoin="miter" fill="none" stroke="#176b70" d="M321.9308 104.21046C321.9308 105.31094 321.0387 106.20302 319.93827 106.20302 318.83778 106.20302 317.9457 105.31094 317.9457 104.21046 317.9457 103.11 318.83778 102.21791 319.93827 102.21791 321.0387 102.21791 321.9308 103.11 321.9308 104.21046ZM319.93827 104.21046"/>
<path transform="matrix(1,0,0,-1,82.307437,118.00963)" d="M346.54145 104.21046C346.54145 105.31094 345.64936 106.20302 344.54887 106.20302 343.4484 106.20302 342.5563 105.31094 342.5563 104.21046 342.5563 103.11 343.4484 102.21791 344.54887 102.21791 345.64936 102.21791 346.54145 103.11 346.54145 104.21046ZM344.54887 104.21046" fill="#176b70"/>
<path transform="matrix(1,0,0,-1,82.307437,118.00963)" stroke-width="1.19553" stroke-linecap="butt" stroke-miterlimit="10" stroke-linejoin="miter" fill="none" stroke="#176b70" d="M346.54145 104.21046C346.54145 105.31094 345.64936 106.20302 344.54887 106.20302 343.4484 106.20302 342.5563 105.31094 342.5563 104.21046 342.5563 103.11 343.4484 102.21791 344.54887 102.21791 345.64936 102.21791 346.54145 103.11 346.54145 104.21046ZM344.54887 104.21046"/>
<path transform="matrix(1,0,0,-1,82.307437,118.00963)" stroke-width="1.19553" stroke-linecap="butt" stroke-miterlimit="10" stroke-linejoin="miter" fill="none" stroke="#176b70" d=""/>
<use data-text="b" xlink:href="#font_1_42" transform="matrix(8.966376,0,0,-8.966376,201.01404,141.71431)"/>
<use data-text="u" xlink:href="#font_1_61" transform="matrix(8.966376,0,0,-8.966376,206.13384,141.71431)"/>
<use data-text="d" xlink:href="#font_1_44" transform="matrix(8.966376,0,0,-8.966376,211.25363,141.71431)"/>
<use data-text="g" xlink:href="#font_1_47" transform="matrix(8.966376,0,0,-8.966376,216.37345,141.71431)"/>
<use data-text="e" xlink:href="#font_1_45" transform="matrix(8.966376,0,0,-8.966376,220.98215,141.71431)"/>
<use data-text="t" xlink:href="#font_1_60" transform="matrix(8.966376,0,0,-8.966376,225.07979,141.71431)"/>
<use data-text="i" xlink:href="#font_1_49" transform="matrix(8.966376,0,0,-8.966376,231.73285,141.71431)"/>
<use data-text="n" xlink:href="#font_1_54" transform="matrix(8.966376,0,0,-8.966376,234.29723,141.71431)"/>
<use data-text="t" xlink:href="#font_1_60" transform="matrix(8.966376,0,0,-8.966376,242.4925,141.71431)"/>
<use data-text="h" xlink:href="#font_1_48" transform="matrix(8.966376,0,0,-8.966376,246.07904,141.71431)"/>
<use data-text="e" xlink:href="#font_1_45" transform="matrix(8.966376,0,0,-8.966376,251.19886,141.71431)"/>
<use data-text="s" xlink:href="#font_1_59" transform="matrix(8.966376,0,0,-8.966376,258.36299,141.71431)"/>
<use data-text="t" xlink:href="#font_1_60" transform="matrix(8.966376,0,0,-8.966376,261.9944,141.71431)"/>
<use data-text="o" xlink:href="#font_1_55" transform="matrix(8.966376,0,0,-8.966376,265.58094,141.71431)"/>
<use data-text="r" xlink:href="#font_1_58" transform="matrix(8.966376,0,0,-8.966376,270.18965,141.71431)"/>
<use data-text="e" xlink:href="#font_1_45" transform="matrix(8.966376,0,0,-8.966376,273.79414,141.71431)"/>
<use data-text="(" xlink:href="#font_1_8" transform="matrix(8.966376,0,0,-8.966376,280.96723,141.71431)"/>
<use data-text="u" xlink:href="#font_1_61" transform="matrix(8.966376,0,0,-8.966376,284.55378,141.71431)"/>
<use data-text="n" xlink:href="#font_1_54" transform="matrix(8.966376,0,0,-8.966376,289.67359,141.71431)"/>
<use data-text="i" xlink:href="#font_1_49" transform="matrix(8.966376,0,0,-8.966376,294.7934,141.71431)"/>
<use data-text="t" xlink:href="#font_1_60" transform="matrix(8.966376,0,0,-8.966376,297.35777,141.71431)"/>
<use data-text="s" xlink:href="#font_1_59" transform="matrix(8.966376,0,0,-8.966376,300.9443,141.71431)"/>
<use data-text=")" xlink:href="#font_1_9" transform="matrix(8.966376,0,0,-8.966376,304.57569,141.71431)"/>
<use data-text="r" xlink:href="#font_1_58" transform="matrix(0,-8.966376,-8.966376,-0,66.393138,115.49553)"/>
<use data-text="u" xlink:href="#font_1_61" transform="matrix(0,-8.966376,-8.966376,-0,66.393138,111.89105)"/>
<use data-text="n" xlink:href="#font_1_54" transform="matrix(0,-8.966376,-8.966376,-0,66.393138,106.77125)"/>
<use data-text="s" xlink:href="#font_1_59" transform="matrix(0,-8.966376,-8.966376,-0,66.393138,101.65144)"/>
<use data-text="o" xlink:href="#font_1_55" transform="matrix(0,-8.966376,-8.966376,-0,66.393138,94.95357)"/>
<use data-text="f" xlink:href="#font_1_46" transform="matrix(0,-8.966376,-8.966376,-0,66.393138,90.34485)"/>
<use data-text="8" xlink:href="#font_1_21" transform="matrix(0,-8.966376,-8.966376,-0,66.393138,84.45393)"/>
<use data-text="t" xlink:href="#font_1_60" transform="matrix(0,-8.966376,-8.966376,-0,66.393138,76.77872)"/>
<use data-text="h" xlink:href="#font_1_48" transform="matrix(0,-8.966376,-8.966376,-0,66.393138,73.19217)"/>
<use data-text="a" xlink:href="#font_1_41" transform="matrix(0,-8.966376,-8.966376,-0,66.393138,68.072368)"/>
<use data-text="t" xlink:href="#font_1_60" transform="matrix(0,-8.966376,-8.966376,-0,66.393138,63.463647)"/>
<use data-text="l" xlink:href="#font_1_52" transform="matrix(0,-8.966376,-8.966376,-0,66.393138,56.80163)"/>
<use data-text="e" xlink:href="#font_1_45" transform="matrix(0,-8.966376,-8.966376,-0,66.393138,54.237245)"/>
<use data-text="f" xlink:href="#font_1_46" transform="matrix(0,-8.966376,-8.966376,-0,66.393138,50.13961)"/>
<use data-text="t" xlink:href="#font_1_60" transform="matrix(0,-8.966376,-8.966376,-0,66.393138,47.324167)"/>
<use data-text="t" xlink:href="#font_1_60" transform="matrix(0,-8.966376,-8.966376,-0,66.393138,40.67112)"/>
<use data-text="h" xlink:href="#font_1_48" transform="matrix(0,-8.966376,-8.966376,-0,66.393138,37.08457)"/>
<use data-text="e" xlink:href="#font_1_45" transform="matrix(0,-8.966376,-8.966376,-0,66.393138,31.964768)"/>
<use data-text="t" xlink:href="#font_1_60" transform="matrix(0,-8.966376,-8.966376,-0,66.393138,24.791665)"/>
<use data-text="u" xlink:href="#font_1_61" transform="matrix(0,-8.966376,-8.966376,-0,66.393138,21.205109)"/>
<use data-text="b" xlink:href="#font_1_42" transform="matrix(0,-8.966376,-8.966376,-0,66.393138,16.085312)"/>
<use data-text="e" xlink:href="#font_1_45" transform="matrix(0,-8.966376,-8.966376,-0,66.393138,10.70549)"/>
</svg>
